<svg xmlns="http://www.w3.org/2000/svg" xmlns:xlink="http://www.w3.org/1999/xlink" width="1086.476" height="353.28" viewBox="0 0 1086.476 353.28"><defs><style>.a,.c{fill:#04f6e8;}.b{opacity:0.18;}.c{opacity:0.8;}.d{clip-path:url(#a);}</style><clipPath id="a"><rect class="a" width="524.762" height="303.277" transform="translate(0 0)"/></clipPath></defs><g class="b" transform="translate(0 0)"><path class="c" d="M2597.974,1968.1q-17.216-4.72-34.55-9c-23.112-5.682-46.358-10.864-69.755-15.179q-35.122-6.381-70.6-10.563c-11.818-1.391-23.662-2.562-35.517-3.589s-23.729-1.859-35.613-2.463a960.314,960.314,0,0,0-142.641,3.55,1036.364,1036.364,0,0,0-140.8,23.66,1036.854,1036.854,0,0,1,140.685-24.781,959.547,959.547,0,0,1,142.84-4.2,1095.247,1095.247,0,0,1,142.019,16.322c23.463,4.291,46.747,9.446,69.905,15.1q17.369,4.242,34.617,8.961c10.726,2.923,21.422,5.949,32.068,9.172v2.4C2619.8,1974.2,2608.9,1971.092,2597.974,1968.1Z" transform="translate(-2068.5 -1624.217)"/><path class="c" d="M2597.974,1889.828q-17.216-4.72-34.55-9c-23.112-5.682-46.358-10.864-69.755-15.179q-35.122-6.381-70.6-10.563c-11.818-1.391-23.662-2.562-35.517-3.589s-23.729-1.859-35.613-2.463a960.232,960.232,0,0,0-142.641,3.55,1036.212,1036.212,0,0,0-140.8,23.66,1036.854,1036.854,0,0,1,140.685-24.781,959.58,959.58,0,0,1,142.84-4.2,1095.161,1095.161,0,0,1,142.019,16.322c23.463,4.292,46.747,9.446,69.905,15.1q17.369,4.243,34.617,8.961c10.726,2.924,21.422,5.95,32.068,9.172v2.4C2619.8,1895.928,2608.9,1892.821,2597.974,1889.828Z" transform="translate(-2068.5 -1606.012)"/><path class="c" d="M2597.974,1811.556q-17.216-4.721-34.55-9c-23.112-5.682-46.358-10.864-69.755-15.178q-35.122-6.38-70.6-10.563c-11.818-1.391-23.662-2.563-35.517-3.59s-23.729-1.858-35.613-2.463a960.43,960.43,0,0,0-142.641,3.55,1036.233,1036.233,0,0,0-140.8,23.661,1036.835,1036.835,0,0,1,140.685-24.781,959.548,959.548,0,0,1,142.84-4.2,1095.248,1095.248,0,0,1,142.019,16.323c23.463,4.291,46.747,9.445,69.905,15.1q17.369,4.242,34.617,8.961c10.726,2.924,21.422,5.95,32.068,9.171v2.4C2619.8,1817.657,2608.9,1814.549,2597.974,1811.556Z" transform="translate(-2068.5 -1587.808)"/><path class="c" d="M2597.974,1733.284q-17.216-4.72-34.55-9c-23.112-5.682-46.358-10.864-69.755-15.179q-35.122-6.381-70.6-10.563c-11.818-1.391-23.662-2.562-35.517-3.589s-23.729-1.859-35.613-2.463a960.347,960.347,0,0,0-142.641,3.55,1036.4,1036.4,0,0,0-140.8,23.66,1036.93,1036.93,0,0,1,140.685-24.781,959.531,959.531,0,0,1,142.84-4.2,1095.374,1095.374,0,0,1,142.019,16.322c23.463,4.292,46.747,9.446,69.905,15.1q17.369,4.242,34.617,8.961c10.726,2.923,21.422,5.949,32.068,9.172v2.4C2619.8,1739.386,2608.9,1736.278,2597.974,1733.284Z" transform="translate(-2068.5 -1569.604)"/><path class="c" d="M2597.974,1655.013q-17.216-4.72-34.55-9c-23.112-5.682-46.358-10.865-69.755-15.179q-35.122-6.381-70.6-10.563c-11.818-1.391-23.662-2.562-35.517-3.589s-23.729-1.859-35.613-2.463a960.331,960.331,0,0,0-142.641,3.55,1036.231,1036.231,0,0,0-140.8,23.66,1036.816,1036.816,0,0,1,140.685-24.781,959.547,959.547,0,0,1,142.84-4.2,1095.246,1095.246,0,0,1,142.019,16.322c23.463,4.291,46.747,9.446,69.905,15.1q17.369,4.242,34.617,8.961c10.726,2.923,21.422,5.949,32.068,9.172v2.4C2619.8,1661.114,2608.9,1658.007,2597.974,1655.013Z" transform="translate(-2068.5 -1551.4)"/><path class="c" d="M2563.424,1567.744c-23.112-5.682-46.358-10.864-69.755-15.178q-35.122-6.381-70.6-10.563c-11.818-1.391-23.662-2.562-35.517-3.589s-23.729-1.859-35.613-2.463a960.413,960.413,0,0,0-142.641,3.55,1036.385,1036.385,0,0,0-140.8,23.661,1036.835,1036.835,0,0,1,140.685-24.781,959.531,959.531,0,0,1,142.84-4.2,1095.14,1095.14,0,0,1,142.019,16.322c23.463,4.292,46.747,9.446,69.905,15.1q17.369,4.243,34.617,8.961c10.726,2.924,21.422,5.95,32.068,9.172v2.4c-10.833-3.3-21.734-6.405-32.662-9.4Q2580.758,1572.022,2563.424,1567.744Z" transform="translate(-2068.5 -1533.195)"/><g class="d" transform="translate(561.714 34.772)"><path class="a" d="M1354.343,1996.6c5.651,1.9,11.277,3.839,16.927,5.69,11.3,3.718,22.7,7.115,34.13,10.436q34.31,9.861,69.128,17.842,34.8,7.956,70.022,13.924,17.6,2.939,35.271,5.617c11.767,1.794,23.553,3.441,35.371,4.813a745.381,745.381,0,0,0,142.544,2.582q17.8-1.31,35.527-3.545t35.29-5.438a642.022,642.022,0,0,0,69.349-17.034,642.413,642.413,0,0,1-69.245,17.584q-17.551,3.39-35.286,5.721-17.718,2.381-35.547,3.828a745.041,745.041,0,0,1-142.832-1.947c-23.708-2.642-47.25-6.392-70.771-10.221q-35.277-5.878-70.158-13.845-34.879-7.9-69.271-17.77c-11.451-3.311-22.884-6.7-34.222-10.411-5.671-1.848-11.311-3.78-16.951-5.67s-11.3-3.7-16.984-5.445c-.544-.167-1.091-.327-1.635-.493v-2.4c.77.233,1.541.458,2.31.694Q1345.861,1993.74,1354.343,1996.6Z" transform="translate(-1335.346 -1674.307)"/><path class="a" d="M1354.343,1918.325c5.651,1.9,11.277,3.839,16.927,5.691,11.3,3.718,22.7,7.115,34.13,10.436q34.31,9.86,69.128,17.841,34.8,7.956,70.022,13.925,17.6,2.938,35.271,5.617c11.767,1.794,23.553,3.441,35.371,4.813a745.431,745.431,0,0,0,142.544,2.582q17.8-1.31,35.527-3.545,17.716-2.219,35.29-5.438a641.935,641.935,0,0,0,69.349-17.034,642.471,642.471,0,0,1-69.245,17.584q-17.551,3.389-35.286,5.72-17.718,2.381-35.547,3.829a745.071,745.071,0,0,1-142.832-1.947c-23.708-2.642-47.25-6.392-70.771-10.22q-35.277-5.878-70.158-13.846-34.879-7.9-69.271-17.77c-11.451-3.31-22.884-6.7-34.222-10.41-5.671-1.848-11.311-3.78-16.951-5.671s-11.3-3.7-16.984-5.444c-.544-.167-1.091-.327-1.635-.493v-2.4c.77.232,1.541.458,2.31.693Q1345.861,1915.469,1354.343,1918.325Z" transform="translate(-1335.346 -1656.103)"/><path class="a" d="M1354.343,1840.054c5.651,1.9,11.277,3.839,16.927,5.69,11.3,3.719,22.7,7.116,34.13,10.437q34.31,9.859,69.128,17.841,34.8,7.957,70.022,13.925,17.6,2.938,35.271,5.617c11.767,1.793,23.553,3.441,35.371,4.812a745.372,745.372,0,0,0,142.544,2.583q17.8-1.311,35.527-3.546,17.716-2.219,35.29-5.438a642.169,642.169,0,0,0,69.349-17.035,642.242,642.242,0,0,1-69.245,17.584q-17.551,3.39-35.286,5.721-17.718,2.382-35.547,3.829a745.15,745.15,0,0,1-142.832-1.947c-23.708-2.643-47.25-6.393-70.771-10.221q-35.277-5.879-70.158-13.846-34.879-7.9-69.271-17.77c-11.451-3.31-22.884-6.7-34.222-10.41-5.671-1.849-11.311-3.78-16.951-5.671s-11.3-3.7-16.984-5.444c-.544-.167-1.091-.327-1.635-.493v-2.4c.77.233,1.541.459,2.31.694Q1345.861,1837.2,1354.343,1840.054Z" transform="translate(-1335.346 -1637.898)"/><path class="a" d="M1354.343,1761.783c5.651,1.9,11.277,3.839,16.927,5.69,11.3,3.719,22.7,7.116,34.13,10.437q34.31,9.859,69.128,17.841,34.8,7.956,70.022,13.925,17.6,2.938,35.271,5.616c11.767,1.794,23.553,3.441,35.371,4.813a745.371,745.371,0,0,0,142.544,2.582q17.8-1.31,35.527-3.545t35.29-5.439a641.993,641.993,0,0,0,69.349-17.034,642.442,642.442,0,0,1-69.245,17.584q-17.551,3.39-35.286,5.721-17.718,2.381-35.547,3.829a745.15,745.15,0,0,1-142.832-1.947c-23.708-2.643-47.25-6.393-70.771-10.221q-35.277-5.878-70.158-13.845-34.879-7.9-69.271-17.77c-11.451-3.311-22.884-6.7-34.222-10.41-5.671-1.849-11.311-3.781-16.951-5.671s-11.3-3.7-16.984-5.445c-.544-.167-1.091-.326-1.635-.492v-2.4c.77.233,1.541.458,2.31.694Q1345.861,1758.926,1354.343,1761.783Z" transform="translate(-1335.346 -1619.694)"/><path class="a" d="M1354.343,1683.512c5.651,1.9,11.277,3.839,16.927,5.69,11.3,3.718,22.7,7.115,34.13,10.436q34.31,9.861,69.128,17.841,34.8,7.956,70.022,13.925,17.6,2.939,35.271,5.617c11.767,1.794,23.553,3.441,35.371,4.813a745.371,745.371,0,0,0,142.544,2.582q17.8-1.31,35.527-3.545,17.716-2.219,35.29-5.438A641.992,641.992,0,0,0,1897.9,1718.4a642.441,642.441,0,0,1-69.245,17.584q-17.551,3.389-35.286,5.72-17.718,2.382-35.547,3.829a745.081,745.081,0,0,1-142.832-1.947c-23.708-2.642-47.25-6.392-70.771-10.221q-35.277-5.878-70.158-13.846-34.879-7.894-69.271-17.77c-11.451-3.311-22.884-6.7-34.222-10.411-5.671-1.848-11.311-3.78-16.951-5.67s-11.3-3.7-16.984-5.445c-.544-.167-1.091-.327-1.635-.493v-2.4c.77.232,1.541.458,2.31.693Q1345.861,1680.656,1354.343,1683.512Z" transform="translate(-1335.346 -1601.49)"/><path class="a" d="M1337.31,1515.024q8.551,2.632,17.033,5.488c5.651,1.9,11.277,3.839,16.927,5.69,11.3,3.718,22.7,7.115,34.13,10.436q34.31,9.861,69.128,17.841,34.8,7.956,70.022,13.925,17.6,2.939,35.271,5.617c11.767,1.794,23.553,3.441,35.371,4.813a745.371,745.371,0,0,0,142.544,2.582q17.8-1.31,35.527-3.545,17.716-2.219,35.29-5.438A641.993,641.993,0,0,0,1897.9,1555.4a642.471,642.471,0,0,1-69.245,17.584q-17.551,3.389-35.286,5.72-17.718,2.382-35.547,3.829a745.081,745.081,0,0,1-142.832-1.947c-23.708-2.642-47.25-6.392-70.771-10.22q-35.277-5.878-70.158-13.846-34.879-7.894-69.271-17.77c-11.451-3.311-22.884-6.7-34.222-10.411-5.671-1.848-11.311-3.78-16.951-5.67s-11.3-3.7-16.984-5.445c-.544-.167-1.091-.327-1.635-.493v-2.4C1335.77,1514.564,1336.541,1514.789,1337.31,1515.024Z" transform="translate(-1335.346 -1563.58)"/><path class="a" d="M1337.31,1599.753q8.551,2.63,17.033,5.487c5.651,1.9,11.277,3.839,16.927,5.69,11.3,3.718,22.7,7.115,34.13,10.436q34.31,9.859,69.128,17.841,34.8,7.957,70.022,13.925,17.6,2.938,35.271,5.617c11.767,1.794,23.553,3.441,35.371,4.812a745.372,745.372,0,0,0,142.544,2.583q17.8-1.311,35.527-3.546,17.716-2.219,35.29-5.438a642.338,642.338,0,0,0,69.349-17.034,642.238,642.238,0,0,1-69.245,17.583q-17.551,3.39-35.286,5.721-17.718,2.382-35.547,3.829a745.081,745.081,0,0,1-142.832-1.947c-23.708-2.643-47.25-6.393-70.771-10.22q-35.277-5.878-70.158-13.846-34.879-7.9-69.271-17.77c-11.451-3.31-22.884-6.7-34.222-10.41-5.671-1.848-11.311-3.78-16.951-5.671s-11.3-3.7-16.984-5.444c-.544-.167-1.091-.327-1.635-.493v-2.4C1335.77,1599.293,1336.541,1599.518,1337.31,1599.753Z" transform="translate(-1335.346 -1583.286)"/></g></g></svg>