<svg xmlns="http://www.w3.org/2000/svg" width="27.694" height="18.256" viewBox="0 0 27.694 18.256"><defs><style>.a{opacity:0.4;}.b{fill:#303c46;}</style></defs><g class="a" transform="translate(-0.001)"><path class="b" d="M386.353,62.49l10.682-7.348a5.118,5.118,0,0,0-3.936-1.821H375.651a5.118,5.118,0,0,0-3.947,1.834l10.69,7.337A3.516,3.516,0,0,0,386.353,62.49Z" transform="translate(-370.528 -53.321)"/><path class="b" d="M366.15,73.71a4.2,4.2,0,0,0-.15,1.107v8.671a4.342,4.342,0,0,0,.863,2.574l8.6-6.467Z" transform="translate(-365.999 -70.025)"/><path class="b" d="M475.264,85.664a4.3,4.3,0,0,0,.647-2.253V74.74a4.2,4.2,0,0,0-.154-1.124l-8.961,5.673Z" transform="translate(-448.216 -69.948)"/><path class="b" d="M392.678,112.008a5.645,5.645,0,0,1-6.4,0l-.039-.027-8.127,6.691a5.1,5.1,0,0,0,2.71.775h17.312a5.09,5.09,0,0,0,3.031-.994l-8.126-6.7Z" transform="translate(-375.617 -101.195)"/></g></svg>