<svg xmlns="http://www.w3.org/2000/svg" xmlns:xlink="http://www.w3.org/1999/xlink" width="1525.25" height="379" viewBox="0 0 1525.25 379"><defs><style>.a,.d{fill:#04f6e8;}.b{fill:#003057;}.c{opacity:0.28;}.d{opacity:0.8;}.e{clip-path:url(#a);}.f{clip-path:url(#b);}</style><clipPath id="a"><rect class="a" width="368.987" height="213.25" transform="translate(0 0)"/></clipPath><clipPath id="b"><rect class="a" width="368.987" height="213.25"/></clipPath></defs><g transform="translate(104.74 -2805)"><rect class="b" width="1378.293" height="379" transform="translate(-1 2805)"/><g class="c" transform="translate(-104.74 2870)"><path class="d" d="M2091.466,1955.171q12.106-3.319,24.294-6.326c16.251-4,32.6-7.639,49.049-10.673q24.7-4.487,49.642-7.427c8.31-.978,16.638-1.8,24.974-2.524s16.685-1.307,25.041-1.732a675.252,675.252,0,0,1,100.3,2.5,728.707,728.707,0,0,1,99,16.637,729.065,729.065,0,0,0-98.923-17.425,674.7,674.7,0,0,0-100.438-2.952,770.106,770.106,0,0,0-99.861,11.477c-16.5,3.017-32.87,6.642-49.154,10.62q-12.214,2.983-24.342,6.3c-7.542,2.056-15.063,4.183-22.549,6.449v1.687C2076.117,1959.462,2083.782,1957.276,2091.466,1955.171Z" transform="translate(-1699.81 -1713.371)"/><path class="d" d="M2091.466,1876.9q12.106-3.319,24.294-6.326c16.251-4,32.6-7.639,49.049-10.673q24.7-4.487,49.642-7.427c8.31-.978,16.638-1.8,24.974-2.524s16.685-1.307,25.041-1.732a675.186,675.186,0,0,1,100.3,2.5,728.593,728.593,0,0,1,99,16.637,729.027,729.027,0,0,0-98.923-17.425,674.721,674.721,0,0,0-100.438-2.952,770.106,770.106,0,0,0-99.861,11.477c-16.5,3.018-32.87,6.642-49.154,10.62q-12.214,2.984-24.342,6.3c-7.542,2.056-15.063,4.184-22.549,6.45v1.687C2076.117,1881.19,2083.782,1879.006,2091.466,1876.9Z" transform="translate(-1699.81 -1677.336)"/><path class="d" d="M2091.466,1798.629q12.106-3.319,24.294-6.327c16.251-4,32.6-7.639,49.049-10.673q24.7-4.486,49.642-7.427c8.31-.979,16.638-1.8,24.974-2.524s16.685-1.307,25.041-1.732a675.318,675.318,0,0,1,100.3,2.5,728.614,728.614,0,0,1,99,16.637,729.008,729.008,0,0,0-98.923-17.425A674.705,674.705,0,0,0,2264.4,1768.7a770.128,770.128,0,0,0-99.861,11.478c-16.5,3.017-32.87,6.642-49.154,10.62q-12.214,2.983-24.342,6.3c-7.542,2.056-15.063,4.184-22.549,6.449v1.687C2076.117,1802.919,2083.782,1800.734,2091.466,1798.629Z" transform="translate(-1699.81 -1641.3)"/><path class="d" d="M2091.466,1720.357q12.106-3.319,24.294-6.326c16.251-4,32.6-7.639,49.049-10.673q24.7-4.487,49.642-7.427c8.31-.978,16.638-1.8,24.974-2.524s16.685-1.307,25.041-1.732a675.285,675.285,0,0,1,100.3,2.5,728.745,728.745,0,0,1,99,16.637,729.141,729.141,0,0,0-98.923-17.425,674.7,674.7,0,0,0-100.438-2.952,770.212,770.212,0,0,0-99.861,11.477c-16.5,3.018-32.87,6.642-49.154,10.62q-12.214,2.983-24.342,6.3c-7.542,2.055-15.063,4.183-22.549,6.449v1.687C2076.117,1724.648,2083.782,1722.463,2091.466,1720.357Z" transform="translate(-1699.81 -1605.265)"/><path class="d" d="M2091.466,1642.086q12.106-3.319,24.294-6.326c16.251-4,32.6-7.639,49.049-10.673q24.7-4.486,49.642-7.427c8.31-.978,16.638-1.8,24.974-2.524s16.685-1.307,25.041-1.732a675.269,675.269,0,0,1,100.3,2.5,728.612,728.612,0,0,1,99,16.637,729.027,729.027,0,0,0-98.923-17.425,674.689,674.689,0,0,0-100.438-2.952,770.127,770.127,0,0,0-99.861,11.477c-16.5,3.017-32.87,6.642-49.154,10.62q-12.214,2.983-24.342,6.3c-7.542,2.055-15.063,4.183-22.549,6.449v1.687C2076.117,1646.376,2083.782,1644.191,2091.466,1642.086Z" transform="translate(-1699.81 -1569.23)"/><path class="d" d="M2115.76,1557.489c16.251-4,32.6-7.639,49.049-10.672q24.7-4.487,49.642-7.427c8.31-.978,16.638-1.8,24.974-2.524s16.685-1.307,25.041-1.732a675.318,675.318,0,0,1,100.3,2.5,728.746,728.746,0,0,1,99,16.637,729.065,729.065,0,0,0-98.923-17.425,674.689,674.689,0,0,0-100.438-2.952,770.042,770.042,0,0,0-99.861,11.477c-16.5,3.017-32.87,6.642-49.154,10.62q-12.214,2.983-24.342,6.3c-7.542,2.056-15.063,4.183-22.549,6.449v1.687c7.618-2.318,15.283-4.5,22.966-6.608Q2103.572,1560.5,2115.76,1557.489Z" transform="translate(-1699.81 -1533.195)"/><g class="e" transform="translate(0 24.45)"><path class="a" d="M1717.2,1994.762c-3.973,1.338-7.929,2.7-11.9,4-7.943,2.615-15.963,5-24,7.338q-24.125,6.933-48.608,12.546-24.472,5.594-49.236,9.791-12.377,2.066-24.8,3.949c-8.274,1.261-16.561,2.419-24.871,3.384a524.117,524.117,0,0,1-100.23,1.816q-12.519-.921-24.981-2.493t-24.814-3.824A451.4,451.4,0,0,1,1335,2019.292a451.684,451.684,0,0,0,48.689,12.364q12.341,2.384,24.812,4.023,12.459,1.674,24.995,2.692A523.874,523.874,0,0,0,1533.929,2037c16.67-1.858,33.224-4.494,49.763-7.187q24.8-4.133,49.332-9.735,24.525-5.552,48.708-12.5c8.052-2.328,16.091-4.709,24.063-7.321,3.987-1.3,7.953-2.658,11.919-3.987s7.944-2.6,11.943-3.829c.383-.117.767-.23,1.15-.346v-1.687c-.541.164-1.084.322-1.624.488Q1723.169,1992.753,1717.2,1994.762Z" transform="translate(-1361.576 -1768.144)"/><path class="a" d="M1717.2,1916.49c-3.973,1.338-7.929,2.7-11.9,4-7.943,2.614-15.963,5-24,7.338q-24.125,6.933-48.608,12.545-24.472,5.594-49.236,9.791-12.377,2.065-24.8,3.949c-8.274,1.261-16.561,2.42-24.871,3.384a524.157,524.157,0,0,1-100.23,1.816q-12.519-.921-24.981-2.493T1383.763,1953A451.4,451.4,0,0,1,1335,1941.021a451.741,451.741,0,0,0,48.689,12.364q12.341,2.383,24.812,4.022,12.459,1.675,24.995,2.692a523.914,523.914,0,0,0,100.432-1.369c16.67-1.858,33.224-4.495,49.763-7.187q24.8-4.133,49.332-9.736,24.525-5.552,48.708-12.5c8.052-2.327,16.091-4.708,24.063-7.32,3.987-1.3,7.953-2.658,11.919-3.987s7.944-2.6,11.943-3.828c.383-.117.767-.23,1.15-.346v-1.687c-.541.164-1.084.322-1.624.487Q1723.169,1914.482,1717.2,1916.49Z" transform="translate(-1361.576 -1732.109)"/><path class="a" d="M1717.2,1838.219c-3.973,1.338-7.929,2.7-11.9,4-7.943,2.615-15.963,5-24,7.339q-24.125,6.933-48.608,12.545-24.472,5.595-49.236,9.791-12.377,2.065-24.8,3.949c-8.274,1.261-16.561,2.42-24.871,3.383a524.1,524.1,0,0,1-100.23,1.816q-12.519-.922-24.981-2.493t-24.814-3.823A451.573,451.573,0,0,1,1335,1862.749a451.625,451.625,0,0,0,48.689,12.364q12.341,2.384,24.812,4.023,12.459,1.674,24.995,2.692a523.954,523.954,0,0,0,100.432-1.369c16.67-1.858,33.224-4.5,49.763-7.187q24.8-4.134,49.332-9.736,24.525-5.551,48.708-12.5c8.052-2.327,16.091-4.709,24.063-7.32,3.987-1.3,7.953-2.658,11.919-3.987s7.944-2.6,11.943-3.828c.383-.118.767-.23,1.15-.346v-1.687c-.541.164-1.084.323-1.624.488Q1723.169,1836.21,1717.2,1838.219Z" transform="translate(-1361.576 -1696.073)"/><path class="a" d="M1717.2,1759.948c-3.973,1.338-7.929,2.7-11.9,4-7.943,2.615-15.963,5-24,7.339q-24.125,6.933-48.608,12.545-24.472,5.594-49.236,9.791-12.377,2.066-24.8,3.949c-8.274,1.262-16.561,2.42-24.871,3.384a524.107,524.107,0,0,1-100.23,1.816q-12.519-.921-24.981-2.492t-24.814-3.824A451.456,451.456,0,0,1,1335,1784.478a451.74,451.74,0,0,0,48.689,12.364q12.341,2.384,24.812,4.023,12.459,1.674,24.995,2.692a523.934,523.934,0,0,0,100.432-1.369c16.67-1.858,33.224-4.495,49.763-7.187q24.8-4.133,49.332-9.735,24.525-5.552,48.708-12.5c8.052-2.328,16.091-4.709,24.063-7.32,3.987-1.3,7.953-2.659,11.919-3.987s7.944-2.6,11.943-3.828c.383-.117.767-.229,1.15-.346V1755.6c-.541.164-1.084.322-1.624.488Q1723.169,1757.939,1717.2,1759.948Z" transform="translate(-1361.576 -1660.038)"/><path class="a" d="M1717.2,1681.677c-3.973,1.338-7.929,2.7-11.9,4-7.943,2.614-15.963,5-24,7.338q-24.125,6.934-48.608,12.545-24.472,5.595-49.236,9.791-12.377,2.066-24.8,3.949c-8.274,1.262-16.561,2.42-24.871,3.384a524.117,524.117,0,0,1-100.23,1.816q-12.519-.921-24.981-2.493t-24.814-3.824A451.427,451.427,0,0,1,1335,1706.207a451.682,451.682,0,0,0,48.689,12.364q12.341,2.383,24.812,4.022,12.459,1.675,24.995,2.692a523.884,523.884,0,0,0,100.432-1.369c16.67-1.858,33.224-4.495,49.763-7.187q24.8-4.133,49.332-9.736,24.525-5.551,48.708-12.495c8.052-2.328,16.091-4.709,24.063-7.32,3.987-1.3,7.953-2.658,11.919-3.987s7.944-2.6,11.943-3.829c.383-.117.767-.23,1.15-.346v-1.687c-.541.163-1.084.322-1.624.487Q1723.169,1679.669,1717.2,1681.677Z" transform="translate(-1361.576 -1624.004)"/><path class="a" d="M1729.182,1514.818q-6.012,1.85-11.977,3.859c-3.973,1.338-7.929,2.7-11.9,4-7.943,2.615-15.963,5-24,7.338q-24.125,6.933-48.608,12.545-24.472,5.594-49.236,9.791-12.377,2.067-24.8,3.949c-8.274,1.262-16.561,2.42-24.871,3.384a524.087,524.087,0,0,1-100.23,1.816q-12.519-.921-24.981-2.493t-24.814-3.824A451.4,451.4,0,0,1,1335,1543.207a451.769,451.769,0,0,0,48.689,12.364q12.341,2.383,24.812,4.022,12.459,1.675,24.995,2.692a523.894,523.894,0,0,0,100.432-1.369c16.67-1.858,33.224-4.494,49.763-7.187q24.8-4.133,49.332-9.736,24.525-5.551,48.708-12.495c8.052-2.328,16.091-4.708,24.063-7.32,3.987-1.3,7.953-2.658,11.919-3.987s7.944-2.6,11.943-3.829c.383-.117.767-.23,1.15-.346v-1.687C1730.265,1514.494,1729.722,1514.653,1729.182,1514.818Z" transform="translate(-1361.576 -1548.96)"/><path class="a" d="M1729.182,1599.547q-6.012,1.849-11.977,3.858c-3.973,1.338-7.929,2.7-11.9,4-7.943,2.615-15.963,5-24,7.338q-24.125,6.933-48.608,12.545-24.472,5.595-49.236,9.792-12.377,2.065-24.8,3.949c-8.274,1.261-16.561,2.42-24.871,3.383a524.1,524.1,0,0,1-100.23,1.816q-12.519-.922-24.981-2.493t-24.814-3.824A451.657,451.657,0,0,1,1335,1627.936a451.6,451.6,0,0,0,48.689,12.364q12.341,2.384,24.812,4.023,12.459,1.675,24.995,2.692a523.924,523.924,0,0,0,100.432-1.369c16.67-1.859,33.224-4.5,49.763-7.187q24.8-4.133,49.332-9.736,24.525-5.552,48.708-12.5c8.052-2.327,16.091-4.708,24.063-7.32,3.987-1.3,7.953-2.658,11.919-3.987s7.944-2.6,11.943-3.828c.383-.117.767-.23,1.15-.346v-1.687C1730.265,1599.224,1729.722,1599.382,1729.182,1599.547Z" transform="translate(-1361.576 -1587.968)"/></g></g><g class="c" transform="translate(656.553 2872)"><path class="d" d="M2440.8,1931.159q-12.106,3.319-24.294,6.326c-16.251,4-32.6,7.639-49.049,10.673q-24.7,4.487-49.642,7.427c-8.31.978-16.638,1.8-24.974,2.524s-16.685,1.307-25.041,1.732a675.252,675.252,0,0,1-100.3-2.5,728.707,728.707,0,0,1-99-16.637,729.065,729.065,0,0,0,98.923,17.425,674.7,674.7,0,0,0,100.438,2.952,770.106,770.106,0,0,0,99.861-11.477c16.5-3.017,32.87-6.642,49.154-10.62q12.214-2.983,24.342-6.3c7.542-2.056,15.063-4.183,22.549-6.449v-1.687C2456.148,1926.869,2448.483,1929.054,2440.8,1931.159Z" transform="translate(-2068.5 -1924.551)"/><path class="d" d="M2440.8,1852.888q-12.106,3.319-24.294,6.326c-16.251,4-32.6,7.639-49.049,10.673q-24.7,4.487-49.642,7.427c-8.31.978-16.638,1.8-24.974,2.524s-16.685,1.307-25.041,1.732a675.186,675.186,0,0,1-100.3-2.5,728.593,728.593,0,0,1-99-16.637,729.027,729.027,0,0,0,98.923,17.425,674.721,674.721,0,0,0,100.438,2.952,770.106,770.106,0,0,0,99.861-11.477c16.5-3.018,32.87-6.642,49.154-10.62q12.214-2.984,24.342-6.3c7.542-2.056,15.063-4.184,22.549-6.45v-1.687C2456.148,1848.6,2448.483,1850.783,2440.8,1852.888Z" transform="translate(-2068.5 -1804.045)"/><path class="d" d="M2440.8,1774.617q-12.106,3.319-24.294,6.327c-16.251,4-32.6,7.639-49.049,10.673q-24.7,4.486-49.642,7.427c-8.31.979-16.638,1.8-24.974,2.524s-16.685,1.307-25.041,1.732a675.318,675.318,0,0,1-100.3-2.5,728.614,728.614,0,0,1-99-16.637,729.008,729.008,0,0,0,98.923,17.425,674.705,674.705,0,0,0,100.438,2.952,770.128,770.128,0,0,0,99.861-11.478c16.5-3.017,32.87-6.642,49.154-10.62q12.214-2.983,24.342-6.3c7.542-2.056,15.063-4.184,22.549-6.449v-1.687C2456.148,1770.327,2448.483,1772.512,2440.8,1774.617Z" transform="translate(-2068.5 -1683.537)"/><path class="d" d="M2440.8,1696.346q-12.106,3.319-24.294,6.326c-16.251,4-32.6,7.639-49.049,10.673q-24.7,4.487-49.642,7.427c-8.31.978-16.638,1.8-24.974,2.524s-16.685,1.307-25.041,1.732a675.285,675.285,0,0,1-100.3-2.5,728.745,728.745,0,0,1-99-16.637,729.141,729.141,0,0,0,98.923,17.425,674.7,674.7,0,0,0,100.438,2.952,770.212,770.212,0,0,0,99.861-11.477c16.5-3.018,32.87-6.642,49.154-10.62q12.214-2.983,24.342-6.3c7.542-2.055,15.063-4.183,22.549-6.449v-1.687C2456.148,1692.055,2448.483,1694.24,2440.8,1696.346Z" transform="translate(-2068.5 -1563.029)"/><path class="d" d="M2440.8,1618.074q-12.106,3.319-24.294,6.326c-16.251,4-32.6,7.639-49.049,10.673q-24.7,4.486-49.642,7.427c-8.31.978-16.638,1.8-24.974,2.524s-16.685,1.307-25.041,1.732a675.269,675.269,0,0,1-100.3-2.5,728.612,728.612,0,0,1-99-16.637,729.027,729.027,0,0,0,98.923,17.425A674.689,674.689,0,0,0,2267.861,1648a770.127,770.127,0,0,0,99.861-11.477c16.5-3.017,32.87-6.642,49.154-10.62q12.214-2.983,24.342-6.3c7.542-2.055,15.063-4.183,22.549-6.449v-1.687C2456.148,1613.784,2448.483,1615.969,2440.8,1618.074Z" transform="translate(-2068.5 -1442.522)"/><path class="d" d="M2416.506,1546.13c-16.251,4-32.6,7.639-49.049,10.672q-24.7,4.487-49.642,7.427c-8.31.978-16.638,1.8-24.974,2.524s-16.685,1.307-25.041,1.732a675.318,675.318,0,0,1-100.3-2.5,728.746,728.746,0,0,1-99-16.637,729.065,729.065,0,0,0,98.923,17.425,674.689,674.689,0,0,0,100.438,2.952,770.042,770.042,0,0,0,99.861-11.477c16.5-3.017,32.87-6.642,49.154-10.62q12.214-2.983,24.342-6.3c7.542-2.056,15.063-4.183,22.549-6.449V1533.2c-7.618,2.318-15.283,4.5-22.966,6.608Q2428.694,1543.123,2416.506,1546.13Z" transform="translate(-2068.5 -1322.015)"/><g class="f" transform="translate(394.97 10.709)"><path class="a" d="M1348.6,2035.794c3.973-1.338,7.929-2.7,11.9-4,7.943-2.615,15.963-5,24-7.338q24.125-6.933,48.608-12.546,24.472-5.594,49.236-9.791,12.377-2.066,24.8-3.949c8.274-1.261,16.561-2.419,24.871-3.384a524.117,524.117,0,0,1,100.23-1.816q12.519.921,24.981,2.493t24.814,3.824a451.4,451.4,0,0,1,48.763,11.977,451.684,451.684,0,0,0-48.689-12.364q-12.341-2.384-24.812-4.023-12.459-1.674-24.995-2.692a523.874,523.874,0,0,0-100.432,1.369c-16.67,1.858-33.224,4.494-49.763,7.187q-24.8,4.133-49.332,9.735-24.525,5.552-48.708,12.5c-8.052,2.328-16.091,4.709-24.063,7.321-3.987,1.3-7.953,2.658-11.919,3.987s-7.944,2.6-11.943,3.829c-.383.117-.767.23-1.15.346v1.687c.541-.164,1.084-.322,1.624-.488Q1342.637,2037.8,1348.6,2035.794Z" transform="translate(-1335.243 -2049.162)"/><path class="a" d="M1348.6,1957.523c3.973-1.338,7.929-2.7,11.9-4,7.943-2.614,15.963-5,24-7.338q24.125-6.933,48.608-12.545,24.472-5.594,49.236-9.791,12.377-2.065,24.8-3.949c8.274-1.261,16.561-2.42,24.871-3.384a524.157,524.157,0,0,1,100.23-1.816q12.519.921,24.981,2.493t24.814,3.824a451.4,451.4,0,0,1,48.763,11.977,451.741,451.741,0,0,0-48.689-12.364q-12.341-2.383-24.812-4.022-12.459-1.675-24.995-2.692a523.914,523.914,0,0,0-100.432,1.369c-16.67,1.858-33.224,4.495-49.763,7.187q-24.8,4.133-49.332,9.736-24.525,5.552-48.708,12.5c-8.052,2.327-16.091,4.708-24.063,7.32-3.987,1.3-7.953,2.658-11.919,3.987s-7.944,2.6-11.943,3.828c-.383.117-.767.23-1.15.346v1.687c.541-.164,1.084-.322,1.624-.487Q1342.637,1959.531,1348.6,1957.523Z" transform="translate(-1335.243 -1928.655)"/><path class="a" d="M1348.6,1879.25c3.973-1.338,7.929-2.7,11.9-4,7.943-2.615,15.963-5,24-7.339q24.125-6.933,48.608-12.545,24.472-5.595,49.236-9.791,12.377-2.065,24.8-3.949c8.274-1.261,16.561-2.42,24.871-3.383a524.1,524.1,0,0,1,100.23-1.816q12.519.922,24.981,2.493t24.814,3.823a451.573,451.573,0,0,1,48.763,11.978,451.625,451.625,0,0,0-48.689-12.364q-12.341-2.384-24.812-4.023-12.459-1.674-24.995-2.692a523.954,523.954,0,0,0-100.432,1.369c-16.67,1.858-33.224,4.5-49.763,7.187q-24.8,4.134-49.332,9.736-24.525,5.551-48.708,12.5c-8.052,2.327-16.091,4.709-24.063,7.32-3.987,1.3-7.953,2.658-11.919,3.987s-7.944,2.6-11.943,3.828c-.383.118-.767.23-1.15.346v1.688c.541-.164,1.084-.323,1.624-.488Q1342.637,1881.259,1348.6,1879.25Z" transform="translate(-1335.243 -1808.146)"/><path class="a" d="M1348.6,1800.98c3.973-1.338,7.929-2.7,11.9-4,7.943-2.615,15.963-5,24-7.339q24.125-6.933,48.608-12.545,24.472-5.594,49.236-9.791,12.377-2.066,24.8-3.949c8.274-1.262,16.561-2.42,24.871-3.384a524.107,524.107,0,0,1,100.23-1.816q12.519.921,24.981,2.492t24.814,3.824a451.456,451.456,0,0,1,48.763,11.977,451.74,451.74,0,0,0-48.689-12.364q-12.341-2.384-24.812-4.023-12.459-1.674-24.995-2.692a523.934,523.934,0,0,0-100.432,1.369c-16.67,1.858-33.224,4.495-49.763,7.187q-24.8,4.133-49.332,9.735-24.525,5.552-48.708,12.5c-8.052,2.328-16.091,4.709-24.063,7.32-3.987,1.3-7.953,2.659-11.919,3.987s-7.944,2.6-11.943,3.828c-.383.117-.767.229-1.15.346v1.687c.541-.164,1.084-.322,1.624-.488Q1342.637,1802.988,1348.6,1800.98Z" transform="translate(-1335.243 -1687.64)"/><path class="a" d="M1348.6,1722.708c3.973-1.338,7.929-2.7,11.9-4,7.943-2.614,15.963-5,24-7.338q24.125-6.934,48.608-12.545,24.472-5.595,49.236-9.791,12.377-2.066,24.8-3.949c8.274-1.262,16.561-2.42,24.871-3.384a524.117,524.117,0,0,1,100.23-1.816q12.519.921,24.981,2.493t24.814,3.824a451.427,451.427,0,0,1,48.763,11.977,451.682,451.682,0,0,0-48.689-12.364q-12.341-2.383-24.812-4.022-12.459-1.675-24.995-2.692a523.884,523.884,0,0,0-100.432,1.369c-16.67,1.858-33.224,4.495-49.763,7.187q-24.8,4.133-49.332,9.736-24.525,5.551-48.708,12.495c-8.052,2.328-16.091,4.709-24.063,7.32-3.987,1.3-7.953,2.658-11.919,3.987s-7.944,2.6-11.943,3.829c-.383.117-.767.23-1.15.346v1.687c.541-.163,1.084-.322,1.624-.487Q1342.637,1724.717,1348.6,1722.708Z" transform="translate(-1335.243 -1567.133)"/><path class="a" d="M1336.624,1563.567q6.012-1.85,11.977-3.859c3.973-1.338,7.929-2.7,11.9-4,7.943-2.615,15.963-5,24-7.338q24.125-6.933,48.608-12.545,24.472-5.594,49.236-9.791,12.377-2.067,24.8-3.949c8.274-1.262,16.561-2.42,24.871-3.384a524.087,524.087,0,0,1,100.23-1.816q12.519.921,24.981,2.493t24.814,3.824a451.4,451.4,0,0,1,48.763,11.977,451.769,451.769,0,0,0-48.689-12.364q-12.341-2.383-24.812-4.022-12.459-1.675-24.995-2.692a523.894,523.894,0,0,0-100.432,1.369c-16.67,1.858-33.224,4.494-49.763,7.187q-24.8,4.133-49.332,9.736-24.525,5.551-48.708,12.495c-8.052,2.328-16.091,4.708-24.063,7.32-3.987,1.3-7.953,2.658-11.919,3.987s-7.944,2.6-11.943,3.829c-.383.117-.767.23-1.15.346v1.687C1335.541,1563.891,1336.084,1563.732,1336.624,1563.567Z" transform="translate(-1335.243 -1316.176)"/><path class="a" d="M1336.624,1648.3q6.012-1.849,11.977-3.858c3.973-1.338,7.929-2.7,11.9-4,7.943-2.615,15.963-5,24-7.338q24.125-6.933,48.608-12.545,24.472-5.595,49.236-9.792,12.377-2.065,24.8-3.949c8.274-1.261,16.561-2.42,24.871-3.383a524.1,524.1,0,0,1,100.23-1.816q12.519.922,24.981,2.493t24.814,3.824a451.657,451.657,0,0,1,48.763,11.977,451.6,451.6,0,0,0-48.689-12.364q-12.341-2.384-24.812-4.023-12.459-1.675-24.995-2.692a523.924,523.924,0,0,0-100.432,1.369c-16.67,1.859-33.224,4.5-49.763,7.187q-24.8,4.133-49.332,9.736-24.525,5.552-48.708,12.5c-8.052,2.327-16.091,4.708-24.063,7.32-3.987,1.3-7.953,2.658-11.919,3.987s-7.944,2.6-11.943,3.828c-.383.117-.767.23-1.15.346v1.687C1335.541,1648.62,1336.084,1648.461,1336.624,1648.3Z" transform="translate(-1335.243 -1446.626)"/></g></g></g></svg>