<?xml version="1.0" encoding="utf-8"?>
<!-- Generator: Adobe Illustrator 25.3.1, SVG Export Plug-In . SVG Version: 6.00 Build 0)  -->
<svg version="1.1" id="Capa_1" xmlns="http://www.w3.org/2000/svg" xmlns:xlink="http://www.w3.org/1999/xlink" x="0px" y="0px"
	 viewBox="0 0 1338.28 262.42" style="enable-background:new 0 0 1338.28 262.42;" xml:space="preserve">
<style type="text/css">
	.st0{fill:#04F6E8;}
</style>
<path id="Trazado_786_1_" class="st0" d="M54.18,176.05c25.01,7.71,50.46,13.94,76.21,18.66c12.85,2.32,25.76,4.23,38.72,5.73
	c12.95,1.54,25.93,2.71,38.95,3.52c52.04,3.46,104.3,1.59,155.96-5.57c25.82-3.63,51.47-8.54,77.11-13.45
	c25.61-5.04,51.07-10.88,76.36-17.53c25.3-6.6,50.4-13.96,75.31-22.09c12.44-4.08,24.86-8.26,37.15-12.8
	c6.15-2.26,12.27-4.63,18.41-6.95c6.14-2.32,12.32-4.56,18.52-6.71c12.41-4.28,24.89-8.28,37.41-12.15
	c12.52-3.87,25.08-7.58,37.69-11.1c25.22-7.03,50.59-13.48,76.17-18.92c51.12-10.81,102.92-18.06,155.04-21.71
	c52.09-3.43,104.37-2.71,156.35,2.14c52.05,4.92,103.67,13.65,154.44,26.12c-50.82-12.14-102.47-20.54-154.52-25.14
	c-51.94-4.65-104.16-5.18-156.18-1.58c-52.03,3.81-103.75,11.15-154.79,21.97c-25.53,5.46-50.86,11.93-76.05,18.99
	c-12.59,3.53-25.14,7.24-37.63,11.13c-12.5,3.88-24.97,7.89-37.34,12.17c-6.19,2.14-12.35,4.36-18.48,6.67
	c-6.14,2.31-12.27,4.67-18.43,6.93c-12.33,4.54-24.77,8.71-37.23,12.78c-24.95,8.07-50.09,15.41-75.43,22.02
	c-25.33,6.59-50.82,12.41-76.47,17.46c-25.66,4.9-51.34,9.73-77.22,13.27c-51.76,7-104.1,8.68-156.21,5.02
	c-13.02-0.89-26.01-2.15-38.97-3.76c-12.96-1.6-25.87-3.59-38.72-5.97C104.58,190.31,79.16,183.92,54.18,176.05z"/>
</svg>
