<svg xmlns="http://www.w3.org/2000/svg" width="1233.291" height="162.432" viewBox="0 0 1233.291 162.432"><defs><style>.a{fill:#04f6e8;}</style></defs><path class="a" d="M0,34.366A667.155,667.155,0,0,1,75.867,14.42q19.213-3.81,38.615-6.384Q133.865,5.4,153.358,3.859A765.51,765.51,0,0,1,309.37,6.777c25.871,3.19,51.6,7.662,77.314,12.131q38.534,6.9,76.638,16.227,38.1,9.246,75.66,20.8C551.49,59.8,563.975,63.761,576.34,68.1c6.186,2.158,12.344,4.416,18.525,6.633s12.395,4.349,18.63,6.392c12.477,4.067,25.024,7.851,37.605,11.508s25.2,7.156,37.87,10.456c25.333,6.6,50.8,12.617,76.469,17.625A1131.471,1131.471,0,0,0,920.8,139.789a985.643,985.643,0,0,0,156.269-4.8,1071.043,1071.043,0,0,0,153.953-28.733,1070.252,1070.252,0,0,1-154.045,27.759,986.187,986.187,0,0,1-156.106,4.236A1153.5,1153.5,0,0,1,765.746,118.92c-25.611-5.028-51.052-11.067-76.348-17.69q-18.973-4.966-37.813-10.487c-12.562-3.665-25.092-7.468-37.539-11.531q-9.335-3.046-18.591-6.355c-6.173-2.206-12.342-4.46-18.544-6.616C564.51,61.91,552,57.959,539.478,54.1Q501.863,42.632,463.7,33.363q-38.148-9.24-76.749-16.158c-25.732-4.465-51.488-8.852-77.419-11.95A765.218,765.218,0,0,0,153.286,2.89q-19.5,1.672-38.892,4.423Q95,10.045,75.783,13.942A667.663,667.663,0,0,0,0,34.366Z" transform="matrix(-1, -0.017, 0.017, -1, 1230.831, 162.432)"/></svg>