<svg xmlns="http://www.w3.org/2000/svg" width="26.304" height="23.687" viewBox="0 0 26.304 23.687"><defs><style>.a{fill:#fff;}</style></defs><path class="a" d="M449.7,4268.392a1.374,1.374,0,0,1-.972-.4l-5.422-5.422-2.974,3.967a1.376,1.376,0,0,1-2.4-.39l-2.436-7.311-4.725-2.363a1.375,1.375,0,0,1,.116-2.511l23.554-9.16a1.375,1.375,0,0,1,1.832,1.615l-5.234,20.937a1.378,1.378,0,0,1-1.334,1.041Zm-5.557-8.876,4.812,4.811,4-16-18.186,7.072,2.46,1.231a1.379,1.379,0,0,1,.69.795l1.786,5.361,1.636-2.18-.465-.465a1.376,1.376,0,0,1,0-1.946l5.234-5.234a1.375,1.375,0,0,1,1.944,1.945l-4.262,4.262.325.325Z" transform="translate(-430.009 -4244.705)"/></svg>