<?xml version="1.0" encoding="utf-8"?>
<!-- Generator: Adobe Illustrator 26.0.1, SVG Export Plug-In . SVG Version: 6.00 Build 0)  -->
<svg version="1.1" id="Capa_1" xmlns="http://www.w3.org/2000/svg" xmlns:xlink="http://www.w3.org/1999/xlink" x="0px" y="0px"
	 viewBox="0 0 1080 1080" style="enable-background:new 0 0 1080 1080;" xml:space="preserve">
<style type="text/css">
	.st0{fill:#FFFFFF;}
</style>
<path class="st0" d="M539.82,21c81.34,2.42,163.33,2.4,244.96,7.82C935,38.77,1041.77,145.34,1051,295.68
	c10.01,163.03,10.08,326.39-0.01,489.41c-9.3,150.21-116.46,257.34-266.49,266.65c-162.44,10.08-325.21,10.06-487.65,0.12
	c-152.71-9.35-259.41-115.7-268.79-267.9C18.05,621.5,18.03,458.69,28.08,296.23c9.37-151.38,116.1-257.58,267.39-267.5
	C376.54,23.42,457.97,23.42,539.82,21z M541.19,119.49c-73.44,0-146.9-1.1-220.3,0.41c-44.19,0.91-86.77,11.46-123.71,37.5
	c-56.53,39.85-76.67,99.07-77.64,163.83c-2.18,145.74-1.36,291.53-0.29,437.29c0.32,43.61,11.09,85.72,36.3,122.42
	c39.58,57.63,99.21,78.34,164.6,79.34c146.28,2.25,292.62,1.43,438.92,0.25c42.97-0.35,84.51-11.22,120.81-35.98
	c57.23-39.04,78.44-98.03,79.52-162.78c2.46-147.41,1.57-294.9,0.32-442.34c-0.36-42.96-11.53-84.51-36.61-120.62
	c-39.89-57.42-99.59-76.48-165-78.76C685.88,117.55,613.5,119.49,541.19,119.49z"/>
<path class="st0" d="M540,274.64c144.64-0.37,265.09,119.7,265.15,264.33c0.07,146.67-118.56,266.42-264.33,266.85
	C393.85,806.25,274.11,686.87,274,539.78C273.88,394.1,393.36,275.02,540,274.64z M711.59,540.8
	c0.56-94.55-75.53-171.91-169.78-172.63c-95.97-0.74-173.48,74.79-174.28,169.83c-0.81,95.93,74.89,173.66,169.75,174.31
	C634.03,712.97,711.02,637.21,711.59,540.8z"/>
<path class="st0" d="M813.72,325.55c-34.42-0.92-60.39-28.7-59.49-63.65c0.88-34.2,29.09-60.61,63.66-59.6
	c34.32,1.01,60.76,29.31,59.56,63.74C876.23,300.58,848.49,326.48,813.72,325.55z"/>
</svg>
