<svg xmlns="http://www.w3.org/2000/svg" width="27.479" height="22.461" viewBox="0 0 27.479 22.461"><defs><style>.a{fill:#fff;}</style></defs><path class="a" d="M385.883,4245.92c-1,.362-1.981.71-2.955,1.068a.834.834,0,0,1-.943-.22,5.655,5.655,0,0,0-9.357,5.086,3.2,3.2,0,0,1,0,.44,16.323,16.323,0,0,1-11.67-5.944,5.84,5.84,0,0,0,1.681,7.555l-.082.1-2.392-.666a6.035,6.035,0,0,0,4.4,5.629h-2.4a5.843,5.843,0,0,0,5.288,3.946,11.641,11.641,0,0,1-8.287,2.362c.221.144.3.2.385.251a15.816,15.816,0,0,0,7.268,2.218,15.384,15.384,0,0,0,8.806-1.93c5.462-3.2,8.1-8.087,8.264-14.359a1,1,0,0,1,.42-.884,10.16,10.16,0,0,0,2.336-2.519c-.55.183-1.019.361-1.5.491s-.983.213-1.476.317A6.542,6.542,0,0,0,385.883,4245.92Z" transform="translate(-359.171 -4245.318)"/></svg>