<svg xmlns="http://www.w3.org/2000/svg" width="12.235" height="26.308" viewBox="0 0 12.235 26.308"><defs><style>.a{fill:#fff;}</style></defs><path class="a" d="M400.8,4251.18v4.55h2.724v13.1h5.415v-13.122c1.105,0,2.142-.013,3.179.008.365.007.487-.109.5-.475.019-.526.111-1.048.165-1.573.084-.813.163-1.627.251-2.513h-4.114c0-.718,0-1.368,0-2.018,0-.228-.007-.458.012-.686.079-.957.476-1.336,1.448-1.376.387-.016.774-.006,1.162-.006h1.452v-4.54c-1.22,0-2.413-.02-3.6.009a12.016,12.016,0,0,0-1.833.183,4.429,4.429,0,0,0-3.936,4.231c-.111,1.206-.083,2.424-.116,3.636-.005.186,0,.371,0,.587Z" transform="translate(-400.795 -4242.527)"/></svg>