<svg xmlns="http://www.w3.org/2000/svg" xmlns:xlink="http://www.w3.org/1999/xlink" width="26.299" height="26.308" viewBox="0 0 26.299 26.308">
  <defs>
    <clipPath id="clip-path">
      <rect id="Rectángulo_1594" data-name="Rectángulo 1594" width="26.299" height="26.308" fill="none"/>
    </clipPath>
  </defs>
  <g id="Grupo_472" data-name="Grupo 472" transform="translate(0 -0.003)">
    <g id="Grupo_471" data-name="Grupo 471" transform="translate(0 0.003)" clip-path="url(#clip-path)">
      <path id="Trazado_1290" data-name="Trazado 1290" d="M13.157,0c2.061.061,4.138.061,6.207.2a6.976,6.976,0,0,1,6.745,6.761,100.743,100.743,0,0,1,0,12.4,6.973,6.973,0,0,1-6.752,6.756A100.414,100.414,0,0,1,7,26.121a6.972,6.972,0,0,1-6.81-6.788,100.248,100.248,0,0,1,0-12.358A6.981,6.981,0,0,1,6.966.2C9.02.063,11.083.063,13.157,0m.035,2.5c-1.861,0-3.722-.028-5.582.01a5.521,5.521,0,0,0-3.134.95A4.849,4.849,0,0,0,2.509,7.609C2.453,11.3,2.474,15,2.5,18.688a5.454,5.454,0,0,0,.92,3.1,4.827,4.827,0,0,0,4.17,2.01c3.706.057,7.414.036,11.121.006a5.425,5.425,0,0,0,3.061-.912,4.783,4.783,0,0,0,2.015-4.124c.062-3.735.04-7.472.008-11.208a5.355,5.355,0,0,0-.928-3.056,4.936,4.936,0,0,0-4.181-2c-1.83-.063-3.664-.014-5.5-.014" transform="translate(0 -0.002)" fill="#fff"/>
      <path id="Trazado_1291" data-name="Trazado 1291" d="M260.192,253.641a6.729,6.729,0,1,1-6.74,6.718,6.754,6.754,0,0,1,6.74-6.718m4.348,6.744a4.359,4.359,0,1,0-4.416,4.346,4.346,4.346,0,0,0,4.416-4.346" transform="translate(-247.03 -247.215)" fill="#fff"/>
      <path id="Trazado_1292" data-name="Trazado 1292" d="M735.167,184.4a1.562,1.562,0,1,1,1.615-1.508,1.54,1.54,0,0,1-1.615,1.508" transform="translate(-715.071 -176.681)" fill="#fff"/>
    </g>
  </g>
</svg>
