<svg xmlns="http://www.w3.org/2000/svg" width="19.014" height="19.014" viewBox="0 0 19.014 19.014"><defs><style>.cls-1{fill:#fff;}</style></defs><g id="Layer_2" data-name="Layer 2"><g id="Content"><path class="cls-1" d="M13.925,19.014H5.088A5.094,5.094,0,0,1,0,13.926V5.088A5.093,5.093,0,0,1,5.088,0h8.837a5.1,5.1,0,0,1,5.089,5.088v8.838A5.1,5.1,0,0,1,13.925,19.014ZM5.088,1.5A3.591,3.591,0,0,0,1.5,5.088v8.838a3.592,3.592,0,0,0,3.588,3.588h8.837a3.593,3.593,0,0,0,3.589-3.588V5.088A3.593,3.593,0,0,0,13.925,1.5ZM9.507,15.456a4.95,4.95,0,1,1,4.949-4.949A4.955,4.955,0,0,1,9.507,15.456Zm0-8.4a3.45,3.45,0,1,0,3.449,3.45A3.453,3.453,0,0,0,9.507,7.057Zm6.1-2.286a1.3,1.3,0,1,0-1.3,1.3A1.3,1.3,0,0,0,15.608,4.771Z"/></g></g></svg>