|<?xml version="1.0" encoding="utf-8"?>
<!-- Generator: Adobe Illustrator 25.3.1, SVG Export Plug-In . SVG Version: 6.00 Build 0)  -->
<svg version="1.1" id="Capa_1" xmlns="http://www.w3.org/2000/svg" xmlns:xlink="http://www.w3.org/1999/xlink" x="0px" y="0px"
	 viewBox="0 0 2397 1080" style="enable-background:new 0 0 2397 1080;" xml:space="preserve">
<style type="text/css">
	.st0{fill:#FFFFFF;}
</style>
<g>
	<circle class="st0" cx="572.94" cy="235.67" r="50.86"/>
	<circle class="st0" cx="888.16" cy="648.18" r="50.86"/>
	<circle class="st0" cx="352.86" cy="426.9" r="50.86"/>
	<path class="st0" d="M523.87,532.69c0.08-0.08,0.14-0.18,0.21-0.26c0.66,0.24,1.36,0.39,2.1,0.39h93.36c1.21,0,2.32-0.38,3.24-1.02
		c0.13,0.16,0.24,0.33,0.39,0.48l66.02,66.02c0.51,0.51,1.1,0.89,1.72,1.18c-0.2,0.62-0.34,1.26-0.34,1.95v93.36
		c0,3.14,2.55,5.69,5.69,5.69h122.65c3.14,0,5.69-2.55,5.69-5.69v-93.36c0-3.46-2.8-6.26-6.26-6.26H700.78L813.8,482.14
		c2.33-2.33,2.33-6.12,0-8.45l-66.4-66.4c-2.12-2.12-5.56-2.12-7.68,0L625.24,521.77V307.03c0-3.46-2.8-6.26-6.26-6.26h-93.36
		c-3.14,0-5.69,2.55-5.69,5.69V520.7l-82.78-82.78c-2.22-2.22-5.83-2.22-8.05,0l-66.02,66.02c-2.44,2.44-2.44,6.41,0,8.85
		l82.38,82.38H286.73c-3.3,0-5.97,2.67-5.97,5.97v93.36c0,3.3,2.68,5.97,5.97,5.97H451c3.3,0,5.97-2.67,5.97-5.97v-93.36
		c0-0.54-0.1-1.06-0.23-1.56c0.39-0.25,0.77-0.53,1.11-0.87L523.87,532.69z"/>
	<circle class="st0" cx="213.44" cy="647.23" r="50.86"/>
	<circle class="st0" cx="828.74" cy="392.5" r="50.86"/>
	<path class="st0" d="M280.82,851.38c-10.77,0-19.86-3.59-27.05-10.77c-7.18-7.18-10.77-16.28-10.77-27.28
		c0-12.21,3.59-21.78,10.77-29.2c6.94-7.42,16.52-11.25,28.25-11.25c5.03,0,10.05,0.96,14.84,2.39c5.02,1.68,9.57,4.07,14.36,6.94
		v-19.39c-5.03-2.39-10.06-4.07-15.56-5.27c-5.51-1.44-11.25-1.92-17-1.92c-16.04,0-29.2,5.27-39.49,16.03
		c-10.05,10.53-15.32,24.41-15.32,41.41c0,16.75,4.79,30.16,14.84,40.45c10.05,10.05,22.98,15.32,39.01,15.32
		c6.94,0,13.41-0.71,19.39-1.91c5.74-1.68,11.25-3.59,16.04-6.46v-21.06c-5.75,4.31-11.49,7.18-16.52,9.09
		C291.59,850.43,286.08,851.38,280.82,851.38z"/>
	<path class="st0" d="M390.92,755.41c-15.32,0-28,5.27-37.81,15.79c-9.81,10.29-14.6,23.94-14.6,40.21
		c0,17.23,4.79,31.11,14.84,41.64c9.81,10.53,22.74,15.79,38.53,15.79c11.01,0,20.35-2.39,28.72-7.18
		c8.14-4.79,14.84-11.97,20.1-21.54l-13.64-9.1c-4.31,7.66-9.33,13.4-15.08,17.23c-5.75,3.83-11.96,5.51-18.91,5.51
		c-10.29,0-18.67-3.35-25.13-10.29c-6.46-6.94-9.58-16.03-9.58-27.29v-1.67h83.05v-3.59c0-17-4.55-30.64-13.64-40.69
		C418.68,760.44,406.23,755.41,390.92,755.41z M358.36,799.92c0.72-8.62,4.07-15.55,10.05-20.82c5.75-5.27,12.92-7.9,21.54-7.9
		c9.81,0,17.47,2.4,22.98,7.42c5.5,5.03,8.62,12.21,9.1,21.3H358.36z"/>
	<path class="st0" d="M557.98,779.34c-4.07-7.9-9.33-13.88-15.8-17.71c-6.46-3.83-13.88-5.98-22.74-5.98
		c-15.08,0-27.04,5.03-35.9,15.56c-9.09,10.05-13.64,23.93-13.64,40.92c0,17.23,4.55,30.88,13.88,41.17
		c9.33,10.29,21.3,15.56,36.38,15.56c8.13,0,15.31-1.92,22.02-5.99c6.46-4.07,11.97-10.05,16.04-17.47v19.15h17.47V686.48h-17.71
		V779.34z M548.89,841.09c-6.23,6.94-14.84,10.29-25.85,10.29c-10.53,0-18.91-3.59-24.89-10.77c-6.23-7.18-9.34-17.48-9.34-30.4
		c0-11.49,3.11-20.58,9.1-27.05c5.98-6.46,14.36-9.57,24.89-9.57c10.53,0,19.15,3.59,25.85,10.77c6.22,6.94,9.57,16.27,9.57,28
		C558.22,824.58,555.11,834.15,548.89,841.09z"/>
	<path class="st0" d="M808.34,755.41c-15.56,0-28,5.27-38.06,15.8c-9.57,10.29-14.6,23.93-14.6,40.21
		c0,17.23,5.03,31.11,14.84,41.64c9.81,10.53,22.98,15.8,38.77,15.8c11.01,0,20.34-2.4,28.48-7.18
		c8.38-4.78,15.08-11.97,20.34-21.54l-13.65-9.09c-4.55,7.66-9.57,13.4-15.08,17.23c-5.75,3.83-11.97,5.51-19.15,5.51
		c-10.29,0-18.67-3.35-25.13-10.29c-6.46-6.94-9.58-16.04-9.58-27.29v-1.68h83.29v-3.59c0-17-4.79-30.64-13.88-40.69
		C836.1,760.44,823.65,755.41,808.34,755.41z M775.54,799.93c0.72-8.62,4.31-15.56,10.06-20.82c5.98-5.27,13.16-7.9,21.78-7.9
		c9.57,0,17.23,2.39,22.74,7.42c5.75,5.03,8.61,12.21,9.33,21.3H775.54z"/>
	<path class="st0" d="M701.83,779.34c-4.07-7.9-9.33-13.88-15.8-17.72c-6.46-3.83-14.12-5.98-22.98-5.98
		c-15.08,0-27.05,5.03-35.9,15.56c-9.1,10.05-13.41,23.69-13.41,40.92c0,17.24,4.55,30.88,13.88,41.17
		c9.33,10.29,21.3,15.56,36.38,15.56c8.14,0,15.32-1.92,22.02-5.99c6.46-4.06,11.97-9.81,16.04-17.47v19.15h17.47V759.48h-17.71
		V779.34z M693.21,840.85c-6.22,6.94-14.6,10.05-25.37,10.05c-11.25,0-19.86-3.35-25.85-10.29c-5.99-6.94-9.34-16.75-9.34-29.44
		c0-11.73,3.11-21.06,9.34-27.76c5.98-6.46,14.36-9.81,25.13-9.81c10.53,0,18.91,3.59,25.37,10.77c6.46,7.18,9.58,16.75,9.58,28.72
		C702.07,825.06,699.19,834.15,693.21,840.85z"/>
	<path class="st0" d="M1049.04,584.49c3.7,2.53,7.64,4.44,11.8,5.72c4.14,1.28,8.52,1.93,13.09,1.93c4.78,0,9.58-0.69,14.45-2.06
		c4.85-1.37,9.63-3.35,14.33-5.97v-13.83c-4.92,3.43-9.77,5.98-14.53,7.65c-4.78,1.67-9.47,2.51-14.14,2.51
		c-9.08,0-16.62-3.11-22.63-9.33c-5.99-6.22-9-13.97-9-23.23c0-9.39,3.05-17.19,9.14-23.41c6.1-6.22,13.84-9.33,23.18-9.33
		c4.19,0,8.52,0.7,12.98,2.11c4.46,1.41,9.24,3.58,14.31,6.52v-13.28c-4.85-2.36-9.49-4.1-13.92-5.2c-4.41-1.1-8.89-1.65-13.38-1.65
		c-6.45,0-12.32,1.08-17.63,3.22c-5.3,2.14-10.09,5.38-14.36,9.7c-4,4.04-7.08,8.76-9.27,14.17c-2.17,5.4-3.26,10.98-3.26,16.74
		c0,7.59,1.64,14.62,4.95,21.08C1038.47,575.01,1043.09,580.33,1049.04,584.49z"/>
	<path class="st0" d="M1155.59,591.83c3.95,0,7.8-0.6,11.53-1.81c3.72-1.2,7.32-3,10.83-5.42v-11.32c-3.89,2.7-7.65,4.7-11.29,6.03
		c-3.65,1.33-7.15,1.98-10.5,1.98c-5,0-8.98-1.49-11.96-4.5c-2.99-3-4.62-7.16-4.93-12.52h39.6v-1.65c0-9.09-2.23-16.32-6.69-21.67
		c-4.46-5.35-10.52-8.02-18.14-8.02c-7.7,0-13.95,2.63-18.74,7.9c-4.79,5.26-7.18,12.11-7.18,20.57c0,9.22,2.48,16.6,7.46,22.12
		S1147.22,591.83,1155.59,591.83z M1144.14,546.08c2.48-2.31,5.74-3.46,9.79-3.46c3.65,0,6.71,1.25,9.16,3.73
		c2.44,2.49,3.83,5.8,4.17,9.92h-27.99C1140.05,551.78,1141.66,548.38,1144.14,546.08z"/>
	<path class="st0" d="M1238.36,545.89c1.8,2.18,2.72,5.57,2.72,10.13v34.59h10.53v-37.46c0-6.21-1.66-11.08-4.95-14.63
		c-3.31-3.55-7.81-5.33-13.54-5.33c-3.02,0-5.84,0.62-8.44,1.87c-2.61,1.25-5.23,3.22-7.86,5.91v-6.91h-10.53v56.55h10.53v-40.76
		c1.95-2.57,3.94-4.42,5.98-5.54c2.04-1.12,4.41-1.68,7.12-1.68C1233.73,542.62,1236.54,543.71,1238.36,545.89z"/>
	<path class="st0" d="M1283.94,570.66c0,7.99,1.22,13.51,3.64,16.53c2.42,3.01,6.61,4.52,12.56,4.52c2.18,0,4.21-0.23,6.1-0.7
		c1.88-0.47,3.65-1.19,5.28-2.17v-10.65c-1.44,0.93-2.94,1.63-4.46,2.08c-1.52,0.45-3.08,0.67-4.7,0.67c-2.97,0-5-0.68-6.09-2.05
		c-1.09-1.37-1.63-4.4-1.63-9.09v-25.95h16.54v-9.79h-16.54v-13.17h-1.2l-18.49,21.85v1.1h8.98V570.66z"/>
	<path class="st0" d="M1348.27,558.65c0.9-4.57,2.44-8.14,4.57-10.71s4.63-3.86,7.5-3.86c1.71,0,3.35,0.36,4.92,1.07
		c1.57,0.72,3.21,1.87,4.92,3.46l5.72-10.04c-2.21-1.87-4.3-3.26-6.26-4.16c-1.96-0.89-3.91-1.34-5.8-1.34
		c-2.75,0-5.3,0.98-7.64,2.93c-2.36,1.96-5,5.41-7.92,10.34v-12.3h-10.53v56.55h10.53V558.65z"/>
	<path class="st0" d="M1434.53,589.56c3.34-1.42,6.34-3.55,9.01-6.37c2.63-2.73,4.67-5.93,6.12-9.61c1.44-3.67,2.17-7.45,2.17-11.32
		c0-3.91-0.7-7.63-2.12-11.14c-1.41-3.51-3.46-6.73-6.17-9.67c-2.67-2.78-5.69-4.9-9.08-6.4c-3.37-1.49-6.91-2.23-10.61-2.23
		c-7.86,0-14.52,2.85-19.97,8.56c-5.46,5.72-8.18,12.67-8.18,20.87c0,8.2,2.72,15.16,8.18,20.87c5.46,5.71,12.11,8.56,19.97,8.56
		C1427.64,591.7,1431.2,590.99,1434.53,589.56z M1411.73,575.73c-3.32-3.72-4.98-8.2-4.98-13.47c0-5.18,1.66-9.63,4.98-13.34
		c3.32-3.72,7.32-5.57,12.02-5.57c4.68,0,8.7,1.86,12.02,5.57c3.31,3.71,4.97,8.16,4.97,13.34c0,5.23-1.66,9.7-5,13.43
		c-3.34,3.73-7.34,5.6-11.99,5.6C1419.05,581.3,1415.05,579.45,1411.73,575.73z"/>
	<path class="st0" d="M1549.23,591.7c2.75,0,5.23-0.35,7.48-1.04c2.23-0.7,4.32-1.76,6.26-3.19v3.12h10.52v-85.62h-10.52v32.25
		c-1.99-1.51-4.11-2.62-6.36-3.34c-2.25-0.71-4.71-1.07-7.39-1.07c-7.62,0-13.85,2.73-18.68,8.2c-4.82,5.47-7.24,12.55-7.24,21.24
		c0,8.69,2.42,15.77,7.24,21.24C1535.38,588.98,1541.61,591.7,1549.23,591.7z M1539.22,547.64c3.1-3.51,7.32-5.27,12.7-5.27
		c2.07,0,3.99,0.32,5.79,0.95c1.79,0.63,3.54,1.61,5.27,2.91v31.83c-1.72,1.34-3.48,2.34-5.27,2.97c-1.8,0.63-3.72,0.95-5.79,0.95
		c-5.38,0-9.6-1.77-12.7-5.3c-3.08-3.53-4.63-8.37-4.63-14.53C1534.59,555.98,1536.14,551.15,1539.22,547.64z"/>
	<path class="st0" d="M1628.73,591.83c3.95,0,7.8-0.6,11.53-1.81c3.72-1.2,7.32-3,10.83-5.42v-11.32c-3.89,2.7-7.65,4.7-11.29,6.03
		c-3.65,1.33-7.15,1.98-10.5,1.98c-5,0-8.98-1.49-11.96-4.5c-2.99-3-4.62-7.16-4.93-12.52h39.6v-1.65c0-9.09-2.23-16.32-6.69-21.67
		c-4.46-5.35-10.52-8.02-18.14-8.02c-7.7,0-13.95,2.63-18.74,7.9c-4.79,5.26-7.18,12.11-7.18,20.57c0,9.22,2.48,16.6,7.46,22.12
		C1613.71,589.06,1620.36,591.83,1628.73,591.83z M1617.28,546.08c2.48-2.31,5.74-3.46,9.79-3.46c3.65,0,6.7,1.25,9.16,3.73
		c2.44,2.49,3.83,5.8,4.17,9.92h-27.99C1613.18,551.78,1614.8,548.38,1617.28,546.08z"/>
	<polygon class="st0" points="1777.73,579.59 1739.74,579.59 1739.74,552.9 1775.5,552.9 1775.5,541.83 1739.74,541.83 
		1739.74,515.88 1776.53,515.88 1776.53,504.98 1728.41,504.98 1728.41,590.61 1777.73,590.61 	"/>
	<path class="st0" d="M1822.72,591.7c5.76,0,10.37-1.49,13.87-4.47c3.49-2.97,5.23-6.96,5.23-11.93c0-3.59-0.87-6.56-2.63-8.9
		c-1.76-2.35-5.52-5.08-11.28-8.18l-0.98-0.49c-7.35-3.87-11.04-7.24-11.04-10.1c0-1.55,0.6-2.74,1.8-3.55
		c1.2-0.81,2.91-1.23,5.12-1.23c2.4,0,4.95,0.46,7.64,1.38s5.66,2.34,8.9,4.25v-11.01c-2.64-1.59-5.33-2.77-8.08-3.52
		c-2.74-0.76-5.6-1.13-8.57-1.13c-5.53,0-9.88,1.38-13.05,4.16c-3.16,2.78-4.74,6.53-4.74,11.26c0,3.64,0.9,6.71,2.74,9.21
		c1.83,2.51,5.2,5.12,10.14,7.8c0.9,0.53,2.2,1.25,3.89,2.14c5.76,3.06,8.63,5.78,8.63,8.14c0,1.87-0.77,3.35-2.32,4.44
		c-1.53,1.08-3.67,1.62-6.37,1.62c-2.44,0-5.12-0.59-8.07-1.77c-2.94-1.19-5.99-2.9-9.16-5.15v12.06c2.89,1.68,5.85,2.92,8.84,3.74
		C1816.24,591.3,1819.4,591.7,1822.72,591.7z"/>
	<path class="st0" d="M1871.06,570.66c0,7.99,1.22,13.51,3.64,16.53c2.42,3.01,6.61,4.52,12.56,4.52c2.18,0,4.21-0.23,6.1-0.7
		c1.88-0.47,3.65-1.19,5.28-2.17v-10.65c-1.44,0.93-2.94,1.63-4.46,2.08c-1.52,0.45-3.08,0.67-4.7,0.67c-2.97,0-5-0.68-6.09-2.05
		c-1.09-1.37-1.63-4.4-1.63-9.09v-25.95h16.54v-9.79h-16.54v-13.17h-1.2l-18.49,21.85v1.1h8.98V570.66z"/>
	<path class="st0" d="M1943,591.46c3.02,0,5.84-0.62,8.44-1.87c2.61-1.24,5.23-3.21,7.86-5.91v6.92h10.53v-56.55h-10.53v40.76
		c-1.95,2.61-3.94,4.48-5.98,5.6s-4.41,1.68-7.12,1.68c-3.81,0-6.63-1.09-8.44-3.27c-1.8-2.18-2.72-5.56-2.72-10.13v-34.64h-10.64
		v37.52c0,6.16,1.66,11.01,4.98,14.56C1932.71,589.69,1937.25,591.46,1943,591.46z"/>
	<path class="st0" d="M2037.25,587.48v3.12h10.52v-85.62h-10.52v32.25c-1.99-1.51-4.11-2.62-6.36-3.34
		c-2.25-0.71-4.71-1.07-7.39-1.07c-7.62,0-13.85,2.73-18.68,8.2c-4.82,5.47-7.24,12.55-7.24,21.24c0,8.69,2.42,15.77,7.24,21.24
		c4.82,5.47,11.05,8.2,18.68,8.2c2.75,0,5.23-0.35,7.48-1.04C2033.22,589.97,2035.31,588.91,2037.25,587.48z M2013.5,576.68
		c-3.08-3.53-4.63-8.37-4.63-14.53c0-6.17,1.55-11,4.63-14.51c3.1-3.51,7.32-5.27,12.7-5.27c2.07,0,3.98,0.32,5.79,0.95
		c1.79,0.63,3.54,1.61,5.27,2.91v31.83c-1.72,1.34-3.48,2.34-5.27,2.97c-1.8,0.63-3.72,0.95-5.79,0.95
		C2020.82,581.98,2016.6,580.21,2013.5,576.68z"/>
	<path class="st0" d="M2084.58,523.77c1.68,0,3.08-0.61,4.22-1.83c1.15-1.23,1.72-2.74,1.72-4.53s-0.57-3.31-1.72-4.53
		c-1.14-1.23-2.55-1.83-4.22-1.83c-1.69,0-3.1,0.61-4.24,1.83c-1.14,1.23-1.72,2.74-1.72,4.53s0.59,3.31,1.72,4.53
		C2081.49,523.16,2082.89,523.77,2084.58,523.77z"/>
	<rect x="2079.32" y="534.05" class="st0" width="10.52" height="56.55"/>
	<path class="st0" d="M2145.97,591.7c3.78,0,7.34-0.71,10.67-2.14c3.34-1.42,6.34-3.55,9.01-6.37c2.63-2.73,4.67-5.93,6.12-9.61
		c1.44-3.67,2.17-7.45,2.17-11.32c0-3.91-0.7-7.63-2.12-11.14c-1.41-3.51-3.46-6.73-6.17-9.67c-2.67-2.78-5.69-4.9-9.08-6.4
		c-3.37-1.49-6.91-2.23-10.61-2.23c-7.86,0-14.52,2.85-19.97,8.56c-5.46,5.72-8.18,12.67-8.18,20.87c0,8.2,2.72,15.16,8.18,20.87
		C2131.46,588.85,2138.11,591.7,2145.97,591.7z M2133.84,548.93c3.32-3.72,7.32-5.57,12.02-5.57c4.68,0,8.7,1.86,12.02,5.57
		c3.31,3.71,4.97,8.16,4.97,13.34c0,5.23-1.66,9.7-5,13.43c-3.34,3.73-7.34,5.6-11.99,5.6c-4.7,0-8.7-1.85-12.02-5.57
		c-3.32-3.72-4.98-8.2-4.98-13.47C2128.86,557.09,2130.52,552.64,2133.84,548.93z"/>
	<path class="st0" d="M2216.43,591.7c5.76,0,10.37-1.49,13.87-4.47c3.49-2.97,5.23-6.96,5.23-11.93c0-3.59-0.87-6.56-2.63-8.9
		c-1.76-2.35-5.52-5.08-11.28-8.18l-0.98-0.49c-7.35-3.87-11.04-7.24-11.04-10.1c0-1.55,0.6-2.74,1.8-3.55
		c1.2-0.81,2.91-1.23,5.12-1.23c2.4,0,4.95,0.46,7.64,1.38c2.69,0.92,5.66,2.34,8.9,4.25v-11.01c-2.64-1.59-5.33-2.77-8.08-3.52
		c-2.74-0.76-5.6-1.13-8.57-1.13c-5.53,0-9.88,1.38-13.05,4.16c-3.16,2.78-4.74,6.53-4.74,11.26c0,3.64,0.9,6.71,2.74,9.21
		c1.83,2.51,5.2,5.12,10.14,7.8c0.9,0.53,2.2,1.25,3.89,2.14c5.76,3.06,8.63,5.78,8.63,8.14c0,1.87-0.77,3.35-2.32,4.44
		c-1.53,1.08-3.67,1.62-6.37,1.62c-2.44,0-5.12-0.59-8.07-1.77c-2.94-1.19-5.99-2.9-9.16-5.15v12.06c2.89,1.68,5.85,2.92,8.84,3.74
		C2209.94,591.3,2213.1,591.7,2216.43,591.7z"/>
	<path class="st0" d="M1068.55,663.41c-10.93,0-19.8,3.76-26.6,11.27c-6.8,7.52-10.18,17.3-10.18,29.36
		c0,13.17,3.53,23.7,10.6,31.59c7.07,7.89,16.53,11.84,28.39,11.84c5.63,0,11.09-0.86,16.37-2.58c5.28-1.72,10.41-4.29,15.39-7.73
		v-16.16c-5.52,3.84-10.86,6.71-16.04,8.6c-5.17,1.9-10.14,2.84-14.91,2.84c-7.08,0-12.75-2.13-16.97-6.42
		c-4.22-4.28-6.56-10.23-6.99-17.87h56.2v-2.36c0-12.99-3.16-23.29-9.5-30.93C1087.97,667.22,1079.38,663.41,1068.55,663.41z
		 M1047.6,696.7c1.09-6.4,3.38-11.26,6.91-14.55c3.51-3.29,8.14-4.93,13.88-4.93c5.2,0,9.54,1.78,13,5.33
		c3.46,3.55,5.44,8.27,5.93,14.15H1047.6z"/>
	<path class="st0" d="M1148.36,687.53c2.75-3.67,5.58-6.31,8.49-7.91c2.89-1.61,6.26-2.4,10.11-2.4c5.41,0,9.41,1.56,11.99,4.67
		c2.56,3.12,3.86,7.94,3.86,14.46v49.36h14.94v-53.48c0-8.85-2.34-15.81-7.04-20.88c-4.68-5.07-11.09-7.6-19.2-7.6
		c-4.29,0-8.27,0.89-11.99,2.66c-3.72,1.78-7.43,4.59-11.16,8.43v-9.87h-14.94v80.73h14.94V687.53z"/>
	<path class="st0" d="M1372.29,634.05c-5.03-3.67-10.56-6.35-16.6-8.04c-6.04-1.68-13.25-2.53-21.65-2.53h-41.75v122.23h41.75
		c8.35,0,15.58-0.85,21.7-2.53c6.12-1.69,11.64-4.37,16.56-8.04c7.64-5.53,13.57-12.71,17.79-21.54c4.22-8.82,6.34-18.51,6.34-29.05
		s-2.1-20.19-6.29-28.96C1385.92,646.82,1379.99,639.64,1372.29,634.05z M1367.1,717.24c-8.02,7.92-19.04,11.88-33.07,11.88h-25.67
		v-88.95h25.67c14.03,0,25.05,3.98,33.07,11.93c8,7.95,12.02,18.83,12.02,32.63C1379.12,698.48,1375.1,709.31,1367.1,717.24z"/>
	<path class="st0" d="M1433.87,674.68c-6.8,7.52-10.18,17.3-10.18,29.36c0,13.17,3.53,23.7,10.6,31.59
		c7.07,7.89,16.53,11.84,28.39,11.84c5.63,0,11.09-0.86,16.37-2.58c5.28-1.72,10.41-4.29,15.39-7.73v-16.16
		c-5.52,3.84-10.86,6.71-16.04,8.6c-5.17,1.9-10.14,2.84-14.91,2.84c-7.08,0-12.75-2.13-16.97-6.42
		c-4.22-4.28-6.56-10.23-6.99-17.87h56.2v-2.36c0-12.99-3.16-23.29-9.5-30.93c-6.33-7.63-14.91-11.44-25.75-11.44
		C1449.54,663.41,1440.67,667.17,1433.87,674.68z M1446.43,682.15c3.51-3.29,8.14-4.93,13.88-4.93c5.2,0,9.54,1.78,13,5.33
		c3.46,3.55,5.44,8.27,5.93,14.15h-39.72C1440.61,690.3,1442.9,685.44,1446.43,682.15z"/>
	<path class="st0" d="M1638.96,745.72v-53.48c0-8.85-2.36-15.81-7.1-20.88c-4.74-5.07-11.2-7.6-19.37-7.6
		c-4.55,0-8.84,1.05-12.87,3.15s-8.35,5.59-12.95,10.48c-2.55-4.72-5.68-8.17-9.39-10.36c-3.7-2.18-8.32-3.27-13.84-3.27
		c-4.29,0-8.27,0.89-11.99,2.66c-3.72,1.78-7.43,4.59-11.16,8.43v-9.87h-14.94v80.73h14.94v-58.19c2.75-3.67,5.58-6.31,8.49-7.91
		c2.89-1.61,6.26-2.4,10.11-2.4c5.41,0,9.41,1.56,11.99,4.67c2.56,3.12,3.86,7.94,3.86,14.46v49.36h14.61v-58.19
		c2.77-3.67,5.61-6.31,8.52-7.91c2.93-1.61,6.37-2.4,10.33-2.4c5.36,0,9.3,1.54,11.81,4.63c2.51,3.09,3.78,7.92,3.78,14.51v49.36
		H1638.96z"/>
	<path class="st0" d="M1744.77,721.43c2.06-5.24,3.08-10.63,3.08-16.16c0-5.59-1.01-10.9-3-15.9c-2.01-5.01-4.93-9.61-8.78-13.81
		c-3.8-3.96-8.08-7.01-12.87-9.13c-4.79-2.13-9.82-3.19-15.07-3.19c-11.15,0-20.61,4.07-28.34,12.23
		c-7.75,8.15-11.62,18.08-11.62,29.79c0,11.71,3.87,21.64,11.62,29.79c7.73,8.15,17.19,12.23,28.34,12.23
		c5.36,0,10.41-1.02,15.15-3.06c4.74-2.04,9-5.07,12.79-9.09C1739.81,731.24,1742.7,726.67,1744.77,721.43z M1724.99,724.44
		c-4.74,5.33-10.41,7.99-17.02,7.99c-6.66,0-12.35-2.65-17.06-7.95c-4.71-5.3-7.07-11.71-7.07-19.22c0-7.4,2.36-13.75,7.07-19.05
		c4.71-5.3,10.41-7.95,17.06-7.95c6.66,0,12.35,2.66,17.05,7.95c4.71,5.3,7.07,11.65,7.07,19.05
		C1732.09,712.72,1729.72,719.11,1724.99,724.44z"/>
	<path class="st0" d="M1825.38,746.24c3.57-0.7,7.26-1.77,11.05-3.23v-16.42c-3.42,1.87-6.86,3.25-10.36,4.15
		c-3.49,0.9-7.08,1.35-10.77,1.35c-8,0-14.49-2.49-19.4-7.47c-4.93-4.97-7.4-11.43-7.4-19.35c0-7.75,2.44-14.1,7.27-19.05
		c4.84-4.95,11.12-7.42,18.8-7.42c3.53,0,6.97,0.54,10.36,1.61c3.38,1.08,6.82,2.75,10.28,5.02v-17.21
		c-3.42-1.69-6.88-2.94-10.41-3.76c-3.51-0.81-7.08-1.22-10.72-1.22c-11.8,0-21.63,4.02-29.48,12.06
		c-7.86,8.03-11.78,18.03-11.78,29.97c0,12.23,3.92,22.29,11.78,30.19c7.84,7.89,17.89,11.84,30.13,11.84
		C1818.26,747.29,1821.8,746.94,1825.38,746.24z"/>
	<path class="st0" d="M1920.86,671.45c-3.15-2.67-6.1-4.66-8.9-5.94c-2.78-1.28-5.53-1.92-8.24-1.92c-3.89,0-7.51,1.4-10.85,4.19
		c-3.32,2.8-7.07,7.73-11.24,14.77v-17.56h-14.94v80.73h14.94v-45.61c1.3-6.52,3.46-11.62,6.5-15.29c3.04-3.67,6.58-5.5,10.64-5.5
		c2.44,0,4.76,0.51,6.99,1.53c2.21,1.02,4.54,2.66,6.97,4.94L1920.86,671.45z"/>
	<path class="st0" d="M1999.52,745.32c2.77-1.19,5.5-3.04,8.21-5.54v-9.79c-2.28,1.92-3.91,3.15-4.9,3.67
		c-1.01,0.52-1.98,0.79-2.89,0.79c-1.08,0-1.85-0.6-2.31-1.79c-0.46-1.19-0.7-3.22-0.7-6.07v-34.17c0-10.19-2.2-17.57-6.58-22.15
		c-4.38-4.57-11.4-6.86-21.03-6.86c-5.36,0-10.42,0.86-15.2,2.58c-4.76,1.72-9.06,4.26-12.9,7.65v15.9
		c4.43-3.73,8.87-6.54,13.32-8.44c4.44-1.89,8.75-2.84,12.92-2.84c5.03,0,8.65,1.07,10.83,3.19c2.2,2.13,3.29,5.61,3.29,10.44
		c0,0.88-0.02,1.54-0.03,2.01c-0.03,0.47-0.08,0.93-0.13,1.4l-17.79,6.38c-8.29,2.97-14.49,6.61-18.6,10.92
		c-4.11,4.31-6.17,9.32-6.17,15.03c0,6.06,1.88,10.82,5.68,14.28c3.8,3.47,9.05,5.2,15.77,5.2c3.89,0,7.53-0.62,10.91-1.88
		c3.38-1.25,6.97-3.31,10.77-6.16c0.22,2.8,1.04,4.84,2.48,6.12c1.42,1.28,3.57,1.92,6.45,1.92
		C1993.89,747.12,1996.77,746.52,1999.52,745.32z M1981.41,729.29c-2.44,1.98-4.93,3.48-7.46,4.5c-2.55,1.02-5.16,1.53-7.81,1.53
		c-3.57,0-6.34-0.9-8.32-2.71c-1.98-1.8-2.96-4.36-2.96-7.69c0-3.79,1.9-7.11,5.72-9.96c3.81-2.85,10.75-5.97,20.83-9.35V729.29z"/>
	<path class="st0" d="M2069.83,732.09c-8,0-14.49-2.49-19.4-7.47c-4.93-4.97-7.4-11.43-7.4-19.35c0-7.75,2.44-14.1,7.27-19.05
		c4.84-4.95,11.12-7.42,18.8-7.42c3.53,0,6.97,0.54,10.36,1.61c3.38,1.08,6.82,2.75,10.28,5.02v-17.21
		c-3.42-1.69-6.88-2.94-10.41-3.76c-3.51-0.81-7.08-1.22-10.72-1.22c-11.8,0-21.63,4.02-29.48,12.06
		c-7.86,8.03-11.78,18.03-11.78,29.97c0,12.23,3.92,22.29,11.78,30.19c7.84,7.89,17.89,11.84,30.13,11.84
		c3.53,0,7.07-0.35,10.64-1.05c3.57-0.7,7.26-1.77,11.05-3.23v-16.42c-3.42,1.87-6.86,3.25-10.36,4.15
		C2077.1,731.63,2073.51,732.09,2069.83,732.09z"/>
	<rect x="2121.54" y="664.99" class="st0" width="14.94" height="80.73"/>
	<path class="st0" d="M2129.01,650.3c2.39,0,4.38-0.87,6.01-2.62s2.44-3.91,2.44-6.47c0-2.56-0.81-4.72-2.44-6.47
		c-1.63-1.75-3.62-2.62-6.01-2.62c-2.39,0-4.38,0.87-6.01,2.62c-1.63,1.75-2.44,3.91-2.44,6.47c0,2.56,0.81,4.72,2.44,6.47
		S2126.62,650.3,2129.01,650.3z"/>
	<path class="st0" d="M2211.7,745.2c1.42,1.28,3.57,1.92,6.45,1.92c2.97,0,5.85-0.6,8.6-1.79c2.77-1.19,5.5-3.04,8.21-5.54v-9.79
		c-2.28,1.92-3.91,3.15-4.9,3.67c-1.01,0.52-1.98,0.79-2.89,0.79c-1.08,0-1.85-0.6-2.31-1.79c-0.46-1.19-0.7-3.22-0.7-6.07v-34.17
		c0-10.19-2.2-17.57-6.58-22.15c-4.38-4.57-11.4-6.86-21.03-6.86c-5.36,0-10.42,0.86-15.2,2.58c-4.76,1.72-9.06,4.26-12.9,7.65v15.9
		c4.43-3.73,8.87-6.54,13.32-8.44c4.44-1.89,8.75-2.84,12.92-2.84c5.03,0,8.65,1.07,10.83,3.19c2.2,2.13,3.29,5.61,3.29,10.44
		c0,0.88-0.02,1.54-0.03,2.01c-0.03,0.47-0.08,0.93-0.13,1.4l-17.79,6.38c-8.29,2.97-14.49,6.61-18.6,10.92
		c-4.11,4.31-6.17,9.32-6.17,15.03c0,6.06,1.88,10.82,5.68,14.28c3.8,3.47,9.05,5.2,15.77,5.2c3.89,0,7.53-0.62,10.91-1.88
		c3.38-1.25,6.97-3.31,10.77-6.16C2209.44,741.87,2210.26,743.91,2211.7,745.2z M2208.65,729.29c-2.44,1.98-4.93,3.48-7.46,4.5
		c-2.55,1.02-5.16,1.53-7.81,1.53c-3.57,0-6.34-0.9-8.32-2.71c-1.98-1.8-2.96-4.36-2.96-7.69c0-3.79,1.9-7.11,5.72-9.96
		c3.81-2.85,10.75-5.97,20.83-9.35V729.29z"/>
	<polygon class="st0" points="1063.41,845.98 1047.85,813.61 1036.67,813.61 1057.89,858.01 1040.5,896.73 1051.46,896.73 
		1088.89,813.61 1077.91,813.61 	"/>
	<path class="st0" d="M1170.52,785.17l-33.07,83.73h11.18l9.71-24.65h32.51l9.82,24.65h11.29l-33.49-83.73H1170.52z M1162.6,833.47
		l11.73-30.16l12.07,30.16H1162.6z"/>
	<path class="st0" d="M1247.01,837.24l-0.93-0.47c-7.02-3.8-10.53-7.08-10.53-9.88c0-1.52,0.59-2.67,1.72-3.47
		c1.14-0.8,2.77-1.2,4.89-1.2c2.29,0,4.71,0.45,7.27,1.35c2.56,0.89,5.39,2.29,8.49,4.16v-10.78c-2.51-1.55-5.08-2.7-7.7-3.44
		c-2.61-0.74-5.35-1.11-8.18-1.11c-5.28,0-9.43,1.36-12.45,4.07c-3.02,2.71-4.52,6.38-4.52,11.01c0,3.56,0.87,6.55,2.63,9.01
		c1.74,2.45,4.95,5,9.65,7.63c0.87,0.51,2.12,1.22,3.72,2.09c5.49,3,8.24,5.65,8.24,7.96c0,1.83-0.74,3.28-2.21,4.34
		s-3.49,1.58-6.09,1.58c-2.32,0-4.89-0.58-7.69-1.73c-2.8-1.15-5.71-2.83-8.73-5.03v11.79c2.77,1.64,5.57,2.85,8.43,3.65
		c2.85,0.8,5.87,1.19,9.03,1.19c5.49,0,9.9-1.45,13.22-4.36c3.34-2.92,5-6.81,5-11.67c0-3.51-0.84-6.41-2.51-8.71
		C1256.09,842.93,1252.5,840.28,1247.01,837.24z"/>
	<path class="st0" d="M1314.77,853.46c-1.85,2.55-3.75,4.38-5.69,5.48c-1.95,1.1-4.22,1.64-6.8,1.64c-3.64,0-6.33-1.07-8.05-3.2
		c-1.72-2.13-2.59-5.43-2.59-9.91v-33.87h-10.14v36.68c0,6.03,1.58,10.78,4.74,14.24c3.16,3.47,7.5,5.21,12.98,5.21
		c2.88,0,5.55-0.61,8.05-1.83c2.48-1.22,4.98-3.14,7.5-5.77v6.76h10.04v-55.29h-10.04V853.46z"/>
	<path class="st0" d="M1375.12,812.77c-2.88,0-5.55,0.61-8.05,1.82c-2.5,1.22-5,3.15-7.5,5.78v-6.76h-10.04v55.29h10.04v-39.86
		c1.85-2.51,3.75-4.32,5.69-5.42c1.95-1.09,4.21-1.64,6.8-1.64c3.64,0,6.31,1.07,8.05,3.2c1.72,2.13,2.58,5.44,2.58,9.91v33.81
		h10.04v-36.63c0-6.06-1.57-10.83-4.71-14.3C1384.88,814.5,1380.58,812.77,1375.12,812.77z"/>
	<path class="st0" d="M1436.34,859.44c-2.85,0-4.78-0.66-5.82-2c-1.03-1.34-1.55-4.3-1.55-8.89v-25.37h15.77v-9.58h-15.77v-12.87
		h-1.14l-17.63,21.36v1.08h8.57v26.21c0,7.82,1.15,13.2,3.46,16.15c2.31,2.96,6.29,4.43,11.97,4.43c2.07,0,4.02-0.23,5.82-0.69
		c1.8-0.46,3.48-1.16,5.04-2.12v-10.41c-1.39,0.92-2.8,1.59-4.25,2.03C1439.36,859.22,1437.85,859.44,1436.34,859.44z"/>
	<path class="st0" d="M1507.48,820.84c-2.55-2.71-5.42-4.79-8.65-6.25c-3.21-1.45-6.59-2.18-10.12-2.18
		c-7.5,0-13.84,2.79-19.04,8.38c-5.2,5.58-7.8,12.39-7.8,20.41c0,8.02,2.59,14.82,7.8,20.41c5.2,5.58,11.54,8.37,19.04,8.37
		c3.61,0,6.99-0.7,10.18-2.1c3.18-1.39,6.04-3.47,8.59-6.22c2.51-2.67,4.46-5.8,5.84-9.39c1.38-3.59,2.07-7.28,2.07-11.07
		c0-3.83-0.66-7.46-2.01-10.9C1512.02,826.87,1510.06,823.72,1507.48,820.84z M1500.04,854.33c-3.18,3.65-6.99,5.48-11.43,5.48
		c-4.48,0-8.29-1.82-11.45-5.45c-3.16-3.63-4.74-8.02-4.74-13.17c0-5.07,1.58-9.42,4.74-13.05c3.16-3.63,6.97-5.45,11.45-5.45
		c4.48,0,8.3,1.82,11.47,5.45c3.16,3.63,4.74,7.98,4.74,13.05C1504.81,846.3,1503.21,850.67,1500.04,854.33z"/>
	<path class="st0" d="M1556.05,837.24l-0.93-0.47c-7.02-3.8-10.53-7.08-10.53-9.88c0-1.52,0.59-2.67,1.72-3.47
		c1.14-0.8,2.77-1.2,4.89-1.2c2.29,0,4.71,0.45,7.27,1.35c2.56,0.89,5.39,2.29,8.49,4.16v-10.78c-2.51-1.55-5.08-2.7-7.7-3.44
		c-2.61-0.74-5.35-1.11-8.18-1.11c-5.28,0-9.43,1.36-12.45,4.07c-3.02,2.71-4.52,6.38-4.52,11.01c0,3.56,0.87,6.55,2.63,9.01
		c1.74,2.45,4.95,5,9.65,7.63c0.87,0.51,2.12,1.22,3.72,2.09c5.49,3,8.24,5.65,8.24,7.96c0,1.83-0.74,3.28-2.21,4.34
		s-3.49,1.58-6.09,1.58c-2.32,0-4.89-0.58-7.69-1.73c-2.8-1.15-5.71-2.83-8.73-5.03v11.79c2.77,1.64,5.57,2.85,8.43,3.65
		c2.85,0.8,5.87,1.19,9.03,1.19c5.49,0,9.9-1.45,13.22-4.36c3.34-2.92,5-6.81,5-11.67c0-3.51-0.84-6.41-2.51-8.71
		C1565.13,842.93,1561.54,840.28,1556.05,837.24z"/>
	<polygon class="st0" points="1643.56,832.04 1677.66,832.04 1677.66,821.21 1643.56,821.21 1643.56,795.83 1678.65,795.83 
		1678.65,785.17 1632.76,785.17 1632.76,868.9 1679.79,868.9 1679.79,858.13 1643.56,858.13 	"/>
	<rect x="1704.02" y="785.17" class="st0" width="10.04" height="83.73"/>
	<path class="st0" d="M1760.67,812.52c-7.35,0-13.32,2.58-17.87,7.73c-4.57,5.15-6.85,11.84-6.85,20.11
		c0,9.01,2.37,16.23,7.12,21.63c4.74,5.41,11.1,8.1,19.07,8.1c3.78,0,7.45-0.59,10.99-1.76c3.54-1.18,6.99-2.94,10.34-5.3v-11.07
		c-3.72,2.63-7.31,4.6-10.79,5.9c-3.46,1.3-6.8,1.95-10.01,1.95c-4.76,0-8.56-1.47-11.4-4.4c-2.83-2.93-4.4-7.01-4.68-12.24h37.75
		v-1.61c0-8.9-2.13-15.96-6.39-21.18C1773.7,815.14,1767.94,812.52,1760.67,812.52z M1746.59,835.33c0.73-4.39,2.26-7.71,4.63-9.96
		c2.36-2.25,5.47-3.38,9.33-3.38c3.49,0,6.4,1.22,8.73,3.65c2.32,2.44,3.65,5.66,3.99,9.69H1746.59z"/>
	<path class="st0" d="M1830.94,859.56c-5.39,0-9.74-1.7-13.05-5.12c-3.31-3.41-4.97-7.83-4.97-13.25c0-5.31,1.63-9.65,4.89-13.05
		c3.26-3.39,7.46-5.09,12.64-5.09c2.36,0,4.68,0.37,6.94,1.11c2.28,0.74,4.59,1.89,6.91,3.45v-11.79c-2.29-1.16-4.62-2.02-6.99-2.58
		c-2.36-0.55-4.76-0.84-7.2-0.84c-7.94,0-14.53,2.75-19.8,8.26c-5.28,5.5-7.92,12.34-7.92,20.53c0,8.37,2.64,15.27,7.92,20.68
		c5.27,5.4,12.02,8.1,20.24,8.1c2.36,0,4.74-0.24,7.13-0.72c2.4-0.47,4.89-1.21,7.43-2.21v-11.25c-2.29,1.28-4.62,2.23-6.96,2.85
		C1835.81,859.25,1833.41,859.56,1830.94,859.56z"/>
	<path class="st0" d="M1885.88,859.44c-2.85,0-4.78-0.66-5.82-2c-1.03-1.34-1.55-4.3-1.55-8.89v-25.37h15.77v-9.58h-15.77v-12.87
		h-1.14l-17.63,21.36v1.08h8.57v26.21c0,7.82,1.15,13.2,3.46,16.15c2.31,2.96,6.29,4.43,11.97,4.43c2.07,0,4.02-0.23,5.82-0.69
		c1.8-0.46,3.48-1.16,5.04-2.12v-10.41c-1.39,0.92-2.8,1.59-4.25,2.03C1888.9,859.22,1887.4,859.44,1885.88,859.44z"/>
	<path class="st0" d="M1957.03,820.84c-2.55-2.71-5.42-4.79-8.65-6.25c-3.21-1.45-6.59-2.18-10.12-2.18
		c-7.5,0-13.84,2.79-19.04,8.38c-5.2,5.58-7.8,12.39-7.8,20.41c0,8.02,2.59,14.82,7.8,20.41c5.2,5.58,11.54,8.37,19.04,8.37
		c3.61,0,6.99-0.7,10.18-2.1c3.18-1.39,6.04-3.47,8.59-6.22c2.51-2.67,4.46-5.8,5.84-9.39c1.38-3.59,2.07-7.28,2.07-11.07
		c0-3.83-0.66-7.46-2.01-10.9C1961.57,826.87,1959.61,823.72,1957.03,820.84z M1949.58,854.33c-3.18,3.65-6.99,5.48-11.43,5.48
		c-4.48,0-8.29-1.82-11.45-5.45c-3.16-3.63-4.74-8.02-4.74-13.17c0-5.07,1.58-9.42,4.74-13.05c3.16-3.63,6.97-5.45,11.45-5.45
		c4.48,0,8.3,1.82,11.47,5.45c3.16,3.63,4.74,7.98,4.74,13.05C1954.36,846.3,1952.76,850.67,1949.58,854.33z"/>
	<path class="st0" d="M2011.43,812.64c-2.63,0-5.04,0.96-7.29,2.88c-2.23,1.91-4.74,5.28-7.54,10.11v-12.03h-10.04v55.29h10.04
		v-31.24c0.87-4.47,2.32-7.95,4.36-10.47c2.02-2.51,4.41-3.77,7.13-3.77c1.64,0,3.21,0.35,4.7,1.04c1.49,0.7,3.05,1.83,4.7,3.38
		l5.46-9.81c-2.12-1.83-4.11-3.19-5.98-4.07C2015.1,813.08,2013.25,812.64,2011.43,812.64z"/>
	<path class="st0" d="M2077.5,861.18c-0.73,0-1.25-0.41-1.55-1.23c-0.32-0.81-0.46-2.2-0.46-4.16v-23.4
		c0-6.98-1.49-12.03-4.43-15.17c-2.94-3.13-7.65-4.7-14.12-4.7c-3.61,0-7.01,0.59-10.22,1.77c-3.19,1.17-6.09,2.92-8.67,5.23v10.89
		c2.97-2.55,5.96-4.48,8.95-5.77c2.97-1.3,5.87-1.95,8.67-1.95c3.38,0,5.82,0.73,7.29,2.18c1.47,1.45,2.21,3.84,2.21,7.16
		c0,0.59-0.02,1.05-0.03,1.38c-0.02,0.32-0.05,0.64-0.08,0.96l-11.96,4.36c-5.57,2.04-9.73,4.53-12.49,7.48
		c-2.77,2.96-4.14,6.39-4.14,10.29c0,4.15,1.27,7.42,3.81,9.79c2.55,2.37,6.07,3.56,10.6,3.56c2.61,0,5.06-0.43,7.34-1.29
		c2.26-0.85,4.68-2.26,7.23-4.21c0.14,1.91,0.7,3.31,1.66,4.19c0.96,0.88,2.4,1.31,4.33,1.31c2.01,0,3.94-0.41,5.79-1.23
		c1.85-0.81,3.68-2.09,5.5-3.8v-6.7c-1.52,1.31-2.63,2.15-3.29,2.51C2078.76,861,2078.12,861.18,2077.5,861.18z M2065.07,857.65
		c-1.64,1.36-3.32,2.39-5.03,3.08c-1.71,0.7-3.45,1.04-5.23,1.04c-2.4,0-4.27-0.62-5.6-1.85c-1.33-1.24-1.98-3-1.98-5.27
		c0-2.59,1.28-4.87,3.84-6.82c2.56-1.95,7.23-4.09,14-6.4V857.65z"/>
	<rect x="2100.97" y="785.17" class="st0" width="10.04" height="83.73"/>
	<path class="st0" d="M2157.61,812.52c-7.35,0-13.32,2.58-17.87,7.73c-4.57,5.15-6.85,11.84-6.85,20.11
		c0,9.01,2.37,16.23,7.12,21.63c4.74,5.41,11.1,8.1,19.07,8.1c3.78,0,7.45-0.59,10.99-1.76s6.99-2.94,10.34-5.3v-11.07
		c-3.72,2.63-7.31,4.6-10.78,5.9c-3.46,1.3-6.8,1.95-10.01,1.95c-4.76,0-8.56-1.47-11.4-4.4c-2.83-2.93-4.4-7.01-4.68-12.24h37.75
		v-1.61c0-8.9-2.14-15.96-6.39-21.18C2170.64,815.14,2164.89,812.52,2157.61,812.52z M2143.54,835.33c0.73-4.39,2.26-7.71,4.63-9.96
		c2.36-2.25,5.47-3.38,9.33-3.38c3.49,0,6.4,1.22,8.73,3.65c2.32,2.44,3.65,5.66,3.99,9.69H2143.54z"/>
	<path class="st0" d="M2221.77,837.24l-0.93-0.47c-7.02-3.8-10.53-7.08-10.53-9.88c0-1.52,0.58-2.67,1.72-3.47s2.77-1.2,4.89-1.2
		c2.29,0,4.71,0.45,7.27,1.35c2.56,0.89,5.39,2.29,8.49,4.16v-10.78c-2.51-1.55-5.08-2.7-7.7-3.44c-2.61-0.74-5.35-1.11-8.18-1.11
		c-5.28,0-9.43,1.36-12.45,4.07c-3.02,2.71-4.52,6.38-4.52,11.01c0,3.56,0.87,6.55,2.63,9.01c1.74,2.45,4.95,5,9.65,7.63
		c0.87,0.51,2.12,1.22,3.72,2.09c5.49,3,8.24,5.65,8.24,7.96c0,1.83-0.74,3.28-2.21,4.34c-1.47,1.06-3.49,1.58-6.09,1.58
		c-2.32,0-4.89-0.58-7.69-1.73c-2.8-1.15-5.71-2.83-8.73-5.03v11.79c2.77,1.64,5.57,2.85,8.43,3.65c2.85,0.8,5.87,1.19,9.03,1.19
		c5.49,0,9.9-1.45,13.22-4.36c3.34-2.92,5-6.81,5-11.67c0-3.51-0.84-6.41-2.51-8.71C2230.85,842.93,2227.26,840.28,2221.77,837.24z"
		/>
</g>
</svg>
