<svg xmlns="http://www.w3.org/2000/svg" width="227.154" height="22.481" viewBox="0 0 227.154 22.481"><defs><style>.a{fill:#fff;}</style></defs><g transform="translate(0 0)"><g transform="translate(86.53)"><path class="a" d="M169.675-47.481h-.022c-.083,0-.168.022-.272.022-.462,0-.819-.251-.819-1.259v-2.854c0-2.875.02-6.274.039-8.037v-.084a1.526,1.526,0,0,0-1.678-1.741c-.188,0-.483.021-.693.021a.623.623,0,0,0-.65.631.539.539,0,0,0,.587.545h.041a2.591,2.591,0,0,1,.337-.022c.839,0,.839.357.84,1.784,0,1.218-.021,2.707-.021,3.777,0,.273-.021.378-.063.378s-.105-.105-.21-.252a4.219,4.219,0,0,0-3.316-1.51,4.7,4.7,0,0,0-4.762,4.975,4.674,4.674,0,0,0,4.765,5.014,4.368,4.368,0,0,0,3.5-1.763c.042-.042.063-.064.084-.064.063,0,.083.083.105.21a1.719,1.719,0,0,0,1.91,1.489c.273,0,.839-.062.839-.65A.558.558,0,0,0,169.675-47.481Zm-5.855.233c-2.1,0-3.567-1.468-3.568-3.86,0-2.414,1.448-3.882,3.567-3.883a3.581,3.581,0,0,1,3.547,3.881A3.587,3.587,0,0,1,163.82-47.248Z" transform="translate(-120.579 64.998)"/><path class="a" d="M181.41-47.043c-.839-.293-.986-.8-.986-2.33,0-.8.041-1.888.1-2.581a5.543,5.543,0,0,0,.022-.587c0-2.35-1.324-3.21-3.276-3.21-1.8,0-3.566.9-3.566,1.7a.569.569,0,0,0,.588.567.586.586,0,0,0,.441-.21,3.308,3.308,0,0,1,2.455-1.008c1.7,0,2.182.9,2.182,2.056,0,.105-.021.231-.021.336,0,.146-.083.21-.336.252a33.655,33.655,0,0,0-3.881.861,2.8,2.8,0,0,0-2.245,2.6,3.125,3.125,0,0,0,3.4,2.9,3.88,3.88,0,0,0,3.19-1.617.111.111,0,0,1,.083-.063c.042,0,.063.042.084.1a1.784,1.784,0,0,0,1.554,1.342.567.567,0,0,0,.566-.587A.533.533,0,0,0,181.41-47.043Zm-2.079-3.441c0,3.231-1.992,3.671-3.063,3.672a2.006,2.006,0,0,1-2.245-1.763c0-1.469,1.742-1.888,5.036-2.414h.064c.146,0,.209.063.209.232Z" transform="translate(-121.446 64.643)"/><path class="a" d="M189.264-47.095h-.084a5.76,5.76,0,0,1-.587.042c-1.637,0-1.679-1.112-1.679-2.748,0-1.554.062-3.715.062-4.512,0-.251,0-.293.336-.293h1.847a.546.546,0,0,0,.588-.567.539.539,0,0,0-.588-.545H187.29c-.272,0-.314,0-.315-.231,0,0,.042-1.679.042-2.288a.6.6,0,0,0-.608-.651.594.594,0,0,0-.608.609v.524c0,.734-.022,1.742-.022,1.826,0,.188-.04.209-.23.209h-1.217a.541.541,0,0,0-.588.547.544.544,0,0,0,.588.566h1.238c.147,0,.21.021.21.231v.336c0,1.028-.04,3.588-.04,4.931,0,.924,0,3.211,2.687,3.211.839,0,1.343-.107,1.343-.652A.521.521,0,0,0,189.264-47.095Z" transform="translate(-122.124 64.839)"/><path class="a" d="M200.837-47.048c-.839-.293-.986-.8-.986-2.329,0-.8.041-1.888.1-2.581a5.792,5.792,0,0,0,.021-.588c0-2.349-1.323-3.21-3.276-3.21-1.8,0-3.566.9-3.566,1.7a.569.569,0,0,0,.588.566.581.581,0,0,0,.441-.21,3.311,3.311,0,0,1,2.455-1.008c1.7,0,2.182.9,2.182,2.056,0,.105-.02.232-.02.337,0,.146-.084.21-.336.252a33.509,33.509,0,0,0-3.882.861,2.8,2.8,0,0,0-2.244,2.6,3.125,3.125,0,0,0,3.4,2.9,3.878,3.878,0,0,0,3.19-1.617.114.114,0,0,1,.084-.063c.041,0,.062.042.083.105a1.785,1.785,0,0,0,1.554,1.343.567.567,0,0,0,.566-.588A.533.533,0,0,0,200.837-47.048Zm-2.078-3.441c0,3.232-1.993,3.672-3.064,3.673a2.006,2.006,0,0,1-2.245-1.763c0-1.469,1.742-1.889,5.036-2.415h.064c.146,0,.21.064.21.232Z" transform="translate(-122.659 64.643)"/><path class="a" d="M208.648-51c-.651-.336-1.658-.755-2.245-1.028a1.614,1.614,0,0,1-1.028-1.384c0-.693.608-1.344,1.7-1.344.126,0,1.993,0,1.993,1.678a.539.539,0,0,0,.588.546.517.517,0,0,0,.525-.5v-.042c-.022-.482-.022-.8-.022-1.091,0-.315,0-.608.022-1.049v-.021a.49.49,0,0,0-.526-.5.472.472,0,0,0-.482.336c-.021.063,0,.251-.1.251a.157.157,0,0,1-.127-.041,3.375,3.375,0,0,0-1.846-.566,2.557,2.557,0,0,0-2.854,2.413,2.537,2.537,0,0,0,1.7,2.33c2.434,1.007,3.358,1.509,3.358,2.622,0,1.007-1.029,1.615-2.1,1.615-1.2,0-2.246-.692-2.246-1.384,0-.147.042-.251.042-.4a.539.539,0,0,0-.566-.566.551.551,0,0,0-.587.547v.042c.021.5.041.818.041,1.133s-.021.629-.041,1.091v.042a.506.506,0,0,0,.546.5c.251,0,.5-.063.5-.587,0-.063.021-.105.063-.105a.267.267,0,0,1,.147.084,3.3,3.3,0,0,0,2.1.691c2.392,0,3.314-1.554,3.314-2.707A3.005,3.005,0,0,0,208.648-51Z" transform="translate(-123.379 64.643)"/><path class="a" d="M222.524-47.472c-.126,0-.23.022-.314.022a.777.777,0,0,1-.608-.251c-3.8-3.482-4.345-3.986-4.345-4.133,0-.064.042-.127.168-.21,1.028-.672,2.644-1.764,3.881-2.6a1,1,0,0,1,.524-.189c.294,0,.127.021.42.021h.021a.553.553,0,0,0,.588-.546.511.511,0,0,0-.608-.546c-.546.021-1.049.022-1.51.022-.483,0-.945,0-1.469-.021h-.042a.534.534,0,0,0-.566.546c0,.5.5.5.88.5.106,0,.148.021.148.063,0,.021-.022.063-.084.105-3.315,2.289-3.4,2.309-3.629,2.309a.315.315,0,0,1-.357-.336s.04-4.449.04-7.156c0-.461-.147-1.573-1.869-1.572-.734,0-1.111.063-1.111.608a.572.572,0,0,0,.587.587h.482c.525.022.693.252.693.839,0,1.133.022,2.54.022,4.009,0,2.559-.02,5.392-.061,7.6a.33.33,0,0,1-.356.356c-.337,0-.379-.021-.63-.021H213.4a.578.578,0,0,0-.608.588.543.543,0,0,0,.63.546c.482-.022.986-.042,1.51-.042.546,0,1.091.02,1.637.041h.021a.562.562,0,0,0,.608-.567.562.562,0,0,0-.608-.566h-.022a5.4,5.4,0,0,1-.588.021.32.32,0,0,1-.356-.356c-.022-1.007-.022-1.679-.022-2.183,0-1.091.021-1.279.336-1.279a.749.749,0,0,1,.629.251c.651.671,2.372,2.265,3.485,3.355a.164.164,0,0,1,.041.084c0,.022,0,.147-.546.147a.491.491,0,0,0-.565.547.533.533,0,0,0,.566.545h.042c.483-.021.944-.041,1.405-.041s.966.02,1.511.04h.021a.561.561,0,0,0,.588-.588A.52.52,0,0,0,222.524-47.472Z" transform="translate(-123.931 64.998)"/><path class="a" d="M233.733-48.4a.6.6,0,0,0-.42.188,3.754,3.754,0,0,1-3.042,1.386,3.427,3.427,0,0,1-3.526-3.692c0-.293.042-.377.252-.378.461,0,2.245.021,3.819.021.776,0,1.49,0,1.973-.022,1.071-.042,1.532-.63,1.532-1.406a3.911,3.911,0,0,0-4.136-3.441,4.8,4.8,0,0,0-4.678,5.08,4.689,4.689,0,0,0,4.744,4.951c2.644,0,4.113-1.6,4.113-2.079A.642.642,0,0,0,233.733-48.4Zm-3.527-6.295a2.635,2.635,0,0,1,2.875,2.182c0,.336-.188.567-.692.589-.588.021-1.763.021-2.854.021-2.434,0-2.623,0-2.623-.209A3.4,3.4,0,0,1,230.206-54.692Z" transform="translate(-124.732 64.642)"/><path class="a" d="M242.149-47.106h-.084c-.209.021-.4.041-.587.041-1.637,0-1.679-1.112-1.68-2.749,0-1.553.063-3.714.063-4.511,0-.251,0-.293.336-.293h1.846a.546.546,0,0,0,.589-.567.541.541,0,0,0-.589-.546h-1.867c-.273,0-.315,0-.316-.231,0,0,.042-1.678.042-2.288a.594.594,0,0,0-.609-.649.594.594,0,0,0-.608.608v.525c0,.734-.021,1.741-.021,1.825,0,.188-.041.209-.23.209h-1.217a.541.541,0,0,0-.588.546.545.545,0,0,0,.588.567h1.238c.147,0,.21.021.21.231v.336c0,1.028-.041,3.589-.041,4.931,0,.923,0,3.211,2.687,3.21.84,0,1.344-.105,1.344-.651A.52.52,0,0,0,242.149-47.106Z" transform="translate(-125.426 64.839)"/><path class="a" d="M253.28-48.407a.661.661,0,0,0-.546.314,3.3,3.3,0,0,1-2.686,1.218,3.677,3.677,0,0,1-3.652-3.9,3.709,3.709,0,0,1,3.651-3.967,2.757,2.757,0,0,1,2.14.86c.251.293.188.546.209.986a.556.556,0,0,0,.589.5.541.541,0,0,0,.608-.525v-.042c-.021-.482-.021-.818-.021-1.133,0-.336,0-.65.021-1.091v-.042a.542.542,0,0,0-.609-.524c-.231,0-.481.1-.5.357-.021.1-.042.23-.105.23-.042,0-.063-.021-.1-.041a4.834,4.834,0,0,0-2.372-.629,4.862,4.862,0,0,0-4.721,5.142,4.771,4.771,0,0,0,4.933,4.951c2.266,0,3.839-1.406,3.839-2.016A.672.672,0,0,0,253.28-48.407Z" transform="translate(-125.96 64.648)"/><path class="a" d="M266.645-47.482h-.022c-.294,0-.273.021-.588.021-.252,0-.356-.147-.356-.378,0-1.658-.022-4.071-.043-4.952a3.323,3.323,0,0,0-3.505-3.356,3.93,3.93,0,0,0-3.105,1.428c-.042.042-.063.063-.083.063s-.042-.042-.042-.105c0-.293.02-2.183.02-3.881q0-.63,0-1.2a1.464,1.464,0,0,0-1.426-1.6,4.731,4.731,0,0,0-.525-.041c-.9,0-1.07.273-1.07.63a.572.572,0,0,0,.587.587h.022a4.146,4.146,0,0,1,.461-.021c.546.021.714.315.714.86,0,1.259.022,2.959.022,4.743,0,2.517-.02,5.161-.04,6.862a.316.316,0,0,1-.337.357c-.336,0-.4-.022-.671-.022h-.021a.577.577,0,0,0-.608.589.542.542,0,0,0,.629.545c.483-.021,1.007-.042,1.532-.043s1.091.022,1.637.042h.021a.574.574,0,0,0,.608-.566.569.569,0,0,0-.63-.567,5.154,5.154,0,0,1-.587.022.321.321,0,0,1-.357-.357c0-.985-.021-1.909-.022-2.685,0-.756.022-1.386.022-1.784a3.064,3.064,0,0,1,3.125-2.749,2.354,2.354,0,0,1,2.414,2.474c.021.4.042,1.386.042,2.477,0,.776-.021,1.573-.021,2.266a.325.325,0,0,1-.336.356c-.336,0-.357-.02-.63-.02h-.021a.577.577,0,0,0-.608.587.543.543,0,0,0,.629.547c.484-.022.986-.043,1.511-.043.546,0,1.091.021,1.637.042h.021a.564.564,0,0,0,.608-.567A.563.563,0,0,0,266.645-47.482Z" transform="translate(-126.63 65)"/><path class="a" d="M141.4-52.534v-10.6a2.1,2.1,0,0,0-2.1-2.1H120.117a2.1,2.1,0,0,0-2.1,2.1V-49.18a2.1,2.1,0,0,0,2.1,2.1h9.06l-3.418,3.44a.522.522,0,0,0,0,.737.523.523,0,0,0,.368.151.521.521,0,0,0,.369-.154l3.212-3.233,3.211,3.233a.522.522,0,0,0,.369.154.523.523,0,0,0,.368-.151.522.522,0,0,0,0-.737l-3.416-3.439h9.06a2.1,2.1,0,0,0,2.1-2.1v-2.1l6.052,4.106a.514.514,0,0,0,.292.09.522.522,0,0,0,.431-.228.522.522,0,0,0-.139-.724Zm-1.042-.707L136.8-55.656a.522.522,0,0,0-.724.139.52.52,0,0,0,.139.723l4.144,2.812v2.8a1.059,1.059,0,0,1-1.057,1.058H120.117a1.059,1.059,0,0,1-1.058-1.058V-63.137a1.059,1.059,0,0,1,1.058-1.058H139.3a1.059,1.059,0,0,1,1.057,1.058Z" transform="translate(-118.019 65.235)"/></g><g transform="translate(0 9.379)"><path class="a" d="M205.116-75.938a3.081,3.081,0,0,0,.285-1.381,2.558,2.558,0,0,0-1.064-2.272,5.406,5.406,0,0,0-3.058-.727q-.594,0-1.3.047a8.182,8.182,0,0,0-1.289.178v9.023h1.665v-3.224h.832a8.309,8.309,0,0,0,1.784-.172A3.831,3.831,0,0,0,204.291-75,2.383,2.383,0,0,0,205.116-75.938Zm-2.107-.119a4.093,4.093,0,0,1-1.85.336h-.806v-3.118c.272-.026.621-.04,1.044-.04a5.146,5.146,0,0,1,.891.073,2.27,2.27,0,0,1,.721.244,1.243,1.243,0,0,1,.476.476,1.512,1.512,0,0,1,.172.753A1.3,1.3,0,0,1,203.009-76.057Z" transform="translate(-198.689 81.322)"/><path class="a" d="M211.806-77.2a2.99,2.99,0,0,0-1.05-.734,3.441,3.441,0,0,0-1.341-.257,3.38,3.38,0,0,0-1.334.257,3.056,3.056,0,0,0-1.05.734,3.353,3.353,0,0,0-.688,1.143,4.3,4.3,0,0,0-.244,1.486,4.357,4.357,0,0,0,.244,1.493,3.414,3.414,0,0,0,.681,1.15,3.048,3.048,0,0,0,1.044.739,3.349,3.349,0,0,0,1.347.264,3.393,3.393,0,0,0,1.354-.264,3.028,3.028,0,0,0,1.051-.739,3.319,3.319,0,0,0,.674-1.15,4.458,4.458,0,0,0,.238-1.493,4.279,4.279,0,0,0-.245-1.486A3.4,3.4,0,0,0,211.806-77.2Zm-1.156,4.28a1.439,1.439,0,0,1-1.235.608,1.442,1.442,0,0,1-1.236-.608,2.752,2.752,0,0,1-.442-1.651,2.7,2.7,0,0,1,.442-1.631,1.447,1.447,0,0,1,1.236-.6,1.444,1.444,0,0,1,1.235.6,2.689,2.689,0,0,1,.443,1.631A2.745,2.745,0,0,1,210.65-72.915Z" transform="translate(-198.569 81.357)"/><path class="a" d="M214.451-74.159q.291.886.582,1.665t.556,1.387H216.9q.341-.977.692-2.081t.653-2.265q.3,1.163.667,2.265t.706,2.081h1.3q.277-.607.569-1.387t.582-1.665q.291-.884.582-1.863t.569-1.995h-1.651q-.12.555-.278,1.2t-.339,1.308q-.178.668-.365,1.3c-.124.423-.244.809-.359,1.162q-.2-.607-.388-1.255t-.356-1.295q-.166-.648-.31-1.261t-.264-1.156h-1.229q-.119.543-.271,1.156t-.324,1.261q-.172.648-.364,1.295t-.391,1.255c-.123-.353-.247-.739-.372-1.162s-.243-.857-.359-1.3-.225-.881-.331-1.308-.2-.826-.278-1.2H213.3q.277,1.017.569,1.995T214.451-74.159Z" transform="translate(-198.452 81.359)"/><path class="a" d="M227.424-70.933a6.113,6.113,0,0,0,.7-.04c.229-.026.442-.059.641-.1a5.332,5.332,0,0,0,.527-.131,2.52,2.52,0,0,0,.364-.139l-.211-1.308a4.341,4.341,0,0,1-.76.225,4.927,4.927,0,0,1-1.063.106,2.237,2.237,0,0,1-1.513-.455,1.823,1.823,0,0,1-.587-1.289h4.558c.008-.087.015-.186.02-.3s.006-.209.006-.3a3.824,3.824,0,0,0-.8-2.641,2.841,2.841,0,0,0-2.226-.886,3.182,3.182,0,0,0-1.189.232,2.977,2.977,0,0,0-1.031.687,3.362,3.362,0,0,0-.721,1.142,4.336,4.336,0,0,0-.27,1.6,4.634,4.634,0,0,0,.211,1.434,3.082,3.082,0,0,0,.647,1.136,2.96,2.96,0,0,0,1.11.753A4.251,4.251,0,0,0,227.424-70.933Zm-1.744-4.9a1.649,1.649,0,0,1,.3-.515,1.47,1.47,0,0,1,.469-.363,1.429,1.429,0,0,1,.647-.139,1.375,1.375,0,0,1,.614.126,1.277,1.277,0,0,1,.436.343,1.5,1.5,0,0,1,.271.515,2.123,2.123,0,0,1,.092.627h-2.972A2.82,2.82,0,0,1,225.68-75.834Z" transform="translate(-198.28 81.357)"/><path class="a" d="M235.158-78.087c-.141-.022-.283-.04-.423-.054s-.264-.019-.37-.019a7.169,7.169,0,0,0-1.539.152,8.79,8.79,0,0,0-1.157.323v6.579h1.6v-5.535a3.64,3.64,0,0,1,.416-.092,3.281,3.281,0,0,1,.562-.053,4,4,0,0,1,.812.073,5.277,5.277,0,0,1,.549.138l.277-1.348c-.079-.026-.185-.054-.317-.085S235.3-78.064,235.158-78.087Z" transform="translate(-198.153 81.357)"/><path class="a" d="M237.391-71.956a2.959,2.959,0,0,0,1.11.753,4.25,4.25,0,0,0,1.585.27,6.111,6.111,0,0,0,.7-.04c.229-.026.442-.059.641-.1a5.335,5.335,0,0,0,.527-.131,2.518,2.518,0,0,0,.364-.139l-.211-1.308a4.378,4.378,0,0,1-.759.225,4.942,4.942,0,0,1-1.064.106,2.236,2.236,0,0,1-1.513-.455,1.823,1.823,0,0,1-.587-1.289h4.558c.008-.087.015-.186.019-.3s.007-.209.007-.3a3.824,3.824,0,0,0-.8-2.641,2.841,2.841,0,0,0-2.226-.886,3.182,3.182,0,0,0-1.189.232,2.967,2.967,0,0,0-1.03.687,3.363,3.363,0,0,0-.721,1.142,4.358,4.358,0,0,0-.27,1.6,4.635,4.635,0,0,0,.211,1.434A3.082,3.082,0,0,0,237.391-71.956Zm.951-3.878a1.65,1.65,0,0,1,.3-.515,1.47,1.47,0,0,1,.469-.363,1.429,1.429,0,0,1,.647-.139,1.386,1.386,0,0,1,.615.126,1.273,1.273,0,0,1,.435.343,1.5,1.5,0,0,1,.271.515,2.121,2.121,0,0,1,.093.627H238.2A2.761,2.761,0,0,1,238.342-75.834Z" transform="translate(-198.074 81.357)"/><path class="a" d="M247.469-70.882A9.269,9.269,0,0,0,248.981-71a9.337,9.337,0,0,0,1.2-.264v-10.04l-1.6.264v3.316a4,4,0,0,0-.661-.264,2.991,2.991,0,0,0-.885-.119,3.132,3.132,0,0,0-1.308.258,2.675,2.675,0,0,0-.964.733,3.267,3.267,0,0,0-.6,1.142,5.07,5.07,0,0,0-.2,1.487,4.349,4.349,0,0,0,.244,1.5,3.174,3.174,0,0,0,.7,1.136,3.05,3.05,0,0,0,1.1.719A4.023,4.023,0,0,0,247.469-70.882ZM246-76.14a1.432,1.432,0,0,1,1.275-.595,2.2,2.2,0,0,1,.746.125,2.524,2.524,0,0,1,.562.271v3.963c-.115.026-.262.051-.443.073a5.66,5.66,0,0,1-.653.033,1.709,1.709,0,0,1-1.387-.6,2.506,2.506,0,0,1-.5-1.659A2.839,2.839,0,0,1,246-76.14Z" transform="translate(-197.954 81.306)"/><path class="a" d="M257.816-70.882a4.029,4.029,0,0,0,1.467-.251,3.01,3.01,0,0,0,1.1-.727,3.227,3.227,0,0,0,.7-1.142,4.344,4.344,0,0,0,.244-1.5,5.019,5.019,0,0,0-.2-1.474,3.385,3.385,0,0,0-.587-1.142,2.554,2.554,0,0,0-.958-.733,3.149,3.149,0,0,0-1.3-.258,3.144,3.144,0,0,0-.892.119,3.756,3.756,0,0,0-.68.264v-3.58l-1.6.264v9.776a9.378,9.378,0,0,0,1.2.264A9.268,9.268,0,0,0,257.816-70.882Zm-1.109-5.469a2.265,2.265,0,0,1,.561-.263,2.279,2.279,0,0,1,.747-.12,1.43,1.43,0,0,1,1.274.595,2.838,2.838,0,0,1,.4,1.612,2.506,2.506,0,0,1-.5,1.659,1.709,1.709,0,0,1-1.386.6,5.666,5.666,0,0,1-.654-.033,4.413,4.413,0,0,1-.442-.073Z" transform="translate(-197.773 81.306)"/><path class="a" d="M262.933-69.985a2.61,2.61,0,0,1-.943-.185l-.29,1.281a2.429,2.429,0,0,0,.549.172,3.437,3.437,0,0,0,.734.079,3.467,3.467,0,0,0,.979-.125,2.225,2.225,0,0,0,.767-.4,3.059,3.059,0,0,0,.622-.7,7.17,7.17,0,0,0,.542-1.017,50.4,50.4,0,0,0,2.48-7.134H266.72q-.3,1.242-.672,2.57t-.789,2.5q-.252-.569-.5-1.23t-.478-1.327q-.224-.668-.418-1.315t-.324-1.2h-1.7a34.889,34.889,0,0,0,1.24,3.646q.7,1.718,1.453,3.171a2.435,2.435,0,0,1-.617.919A1.467,1.467,0,0,1,262.933-69.985Z" transform="translate(-197.665 81.359)"/></g></g></svg>