<svg xmlns="http://www.w3.org/2000/svg" width="1366" height="526" viewBox="0 0 1366 526"><defs><style>.a{fill:#0a4a83;stroke:#707070;}.b{opacity:0.2;}.c,.d{fill:#04f6e8;}.c{opacity:0.8;}.e{stroke:none;}.f{fill:none;}</style></defs><g transform="translate(0 -1505)"><g class="a" transform="translate(1366 2031) rotate(180)"><rect class="e" width="1366" height="526"/><rect class="f" x="0.5" y="0.5" width="1365" height="525"/></g><g class="b" transform="translate(-1091.131 2114.037)"><path class="c" d="M2086.892,1949.073q9.694-2.658,19.455-5.067c13.014-3.2,26.1-6.118,39.28-8.547q19.777-3.593,39.755-5.948c6.655-.783,13.324-1.443,20-2.021s13.362-1.047,20.054-1.387a540.747,540.747,0,0,1,80.323,2,583.53,583.53,0,0,1,79.284,13.323,583.873,583.873,0,0,0-79.221-13.955,540.421,540.421,0,0,0-80.435-2.364,616.724,616.724,0,0,0-79.972,9.192c-13.213,2.416-26.324,5.319-39.365,8.5q-9.781,2.388-19.494,5.046c-6.04,1.646-12.063,3.35-18.058,5.164v1.351C2074.6,1952.509,2080.739,1950.759,2086.892,1949.073Z" transform="translate(-609.824 -2201.598)"/><path class="c" d="M2086.892,1870.8q9.694-2.658,19.455-5.066c13.014-3.2,26.1-6.118,39.28-8.547q19.777-3.593,39.755-5.948c6.655-.783,13.324-1.443,20-2.021s13.362-1.047,20.054-1.387a540.7,540.7,0,0,1,80.323,2,583.492,583.492,0,0,1,79.284,13.323,583.8,583.8,0,0,0-79.221-13.954,540.338,540.338,0,0,0-80.435-2.364,616.766,616.766,0,0,0-79.972,9.191c-13.213,2.417-26.324,5.319-39.365,8.5q-9.781,2.389-19.494,5.046c-6.04,1.646-12.063,3.35-18.058,5.165v1.351C2074.6,1874.238,2080.739,1872.488,2086.892,1870.8Z" transform="translate(-609.824 -2157.152)"/><path class="c" d="M2086.892,1792.531q9.694-2.658,19.455-5.067c13.014-3.2,26.1-6.117,39.28-8.547q19.777-3.593,39.755-5.948c6.655-.784,13.324-1.443,20-2.022s13.362-1.046,20.054-1.387a540.813,540.813,0,0,1,80.323,2,583.494,583.494,0,0,1,79.284,13.324,583.835,583.835,0,0,0-79.221-13.955,540.322,540.322,0,0,0-80.435-2.365,616.724,616.724,0,0,0-79.972,9.192c-13.213,2.416-26.324,5.319-39.365,8.5q-9.781,2.389-19.494,5.046c-6.04,1.647-12.063,3.35-18.058,5.165v1.351C2074.6,1795.966,2080.739,1794.216,2086.892,1792.531Z" transform="translate(-609.824 -2112.704)"/><path class="c" d="M2086.892,1714.259q9.694-2.658,19.455-5.066c13.014-3.2,26.1-6.117,39.28-8.547q19.777-3.593,39.755-5.948c6.655-.783,13.324-1.443,20-2.021s13.362-1.047,20.054-1.387a540.813,540.813,0,0,1,80.323,2,583.606,583.606,0,0,1,79.284,13.323,583.911,583.911,0,0,0-79.221-13.955,540.306,540.306,0,0,0-80.435-2.364,616.83,616.83,0,0,0-79.972,9.191c-13.213,2.417-26.324,5.319-39.365,8.5q-9.781,2.389-19.494,5.046c-6.04,1.646-12.063,3.35-18.058,5.165v1.351C2074.6,1717.7,2080.739,1715.945,2086.892,1714.259Z" transform="translate(-609.824 -2068.257)"/><path class="c" d="M2086.892,1635.988q9.694-2.658,19.455-5.066c13.014-3.2,26.1-6.118,39.28-8.547q19.777-3.593,39.755-5.948c6.655-.783,13.324-1.442,20-2.021s13.362-1.047,20.054-1.387a540.78,540.78,0,0,1,80.323,2,583.493,583.493,0,0,1,79.284,13.323,583.8,583.8,0,0,0-79.221-13.955,540.322,540.322,0,0,0-80.435-2.364,616.809,616.809,0,0,0-79.972,9.191c-13.213,2.417-26.324,5.319-39.365,8.505q-9.781,2.388-19.494,5.046c-6.04,1.646-12.063,3.35-18.058,5.164v1.351C2074.6,1639.424,2080.739,1637.674,2086.892,1635.988Z" transform="translate(-609.824 -2023.811)"/><path class="c" d="M2106.347,1552.65c13.014-3.2,26.1-6.118,39.28-8.547q19.777-3.593,39.755-5.948c6.655-.783,13.324-1.442,20-2.021s13.362-1.047,20.054-1.387a540.813,540.813,0,0,1,80.323,2,583.588,583.588,0,0,1,79.284,13.324,583.854,583.854,0,0,0-79.221-13.955,540.306,540.306,0,0,0-80.435-2.364,616.681,616.681,0,0,0-79.972,9.191c-13.213,2.417-26.324,5.319-39.365,8.5q-9.781,2.389-19.494,5.046c-6.04,1.646-12.063,3.35-18.058,5.165v1.351c6.1-1.856,12.239-3.607,18.392-5.292Q2096.586,1555.059,2106.347,1552.65Z" transform="translate(-609.824 -1979.364)"/><path class="d" d="M1641.085,1993.9c-3.182,1.071-6.35,2.162-9.532,3.2-6.361,2.094-12.784,4.007-19.219,5.877q-19.32,5.553-38.927,10.047t-39.43,7.841q-9.912,1.655-19.861,3.163c-6.626,1.01-13.263,1.938-19.918,2.71a419.7,419.7,0,0,1-80.268,1.454q-10.026-.738-20.006-2t-19.872-3.063a361.506,361.506,0,0,1-39.051-9.592,361.768,361.768,0,0,0,38.992,9.9q9.883,1.909,19.87,3.221,9.977,1.341,20.017,2.156a419.515,419.515,0,0,0,80.43-1.1c13.35-1.488,26.607-3.6,39.852-5.755q19.865-3.31,39.507-7.8,19.641-4.446,39.007-10.007c6.448-1.865,12.886-3.771,19.271-5.863,3.193-1.041,6.369-2.129,9.545-3.193s6.362-2.086,9.564-3.066c.306-.094.614-.184.921-.277v-1.351c-.433.131-.868.258-1.3.391Q1645.861,1992.288,1641.085,1993.9Z" transform="translate(-192.869 -2239)"/><path class="d" d="M1641.085,1915.625c-3.182,1.072-6.35,2.162-9.532,3.2-6.361,2.094-12.784,4.006-19.219,5.877q-19.32,5.552-38.927,10.046t-39.43,7.841q-9.912,1.654-19.861,3.163c-6.626,1.01-13.263,1.938-19.918,2.71a419.762,419.762,0,0,1-80.268,1.454q-10.026-.738-20.006-2t-19.872-3.062A361.45,361.45,0,0,1,1335,1935.27a361.711,361.711,0,0,0,38.992,9.9q9.883,1.908,19.87,3.221,9.977,1.341,20.017,2.156a419.6,419.6,0,0,0,80.43-1.1c13.35-1.488,26.607-3.6,39.852-5.755q19.865-3.31,39.507-7.8,19.641-4.446,39.007-10.007c6.448-1.864,12.886-3.771,19.271-5.862,3.193-1.041,6.369-2.129,9.545-3.193s6.362-2.086,9.564-3.066c.306-.094.614-.184.921-.277v-1.351c-.433.131-.868.258-1.3.39Q1645.861,1914.017,1641.085,1915.625Z" transform="translate(-192.869 -2194.553)"/><path class="d" d="M1641.085,1837.354c-3.182,1.071-6.35,2.162-9.532,3.2-6.361,2.094-12.784,4.007-19.219,5.877q-19.32,5.552-38.927,10.047t-39.43,7.841q-9.912,1.654-19.861,3.163c-6.626,1.01-13.263,1.938-19.918,2.709a419.712,419.712,0,0,1-80.268,1.455q-10.026-.738-20.006-2t-19.872-3.062A361.594,361.594,0,0,1,1335,1857a361.681,361.681,0,0,0,38.992,9.9q9.883,1.909,19.87,3.222,9.977,1.341,20.017,2.156a419.624,419.624,0,0,0,80.43-1.1c13.35-1.488,26.607-3.6,39.852-5.755q19.865-3.31,39.507-7.8,19.641-4.446,39.007-10.006c6.448-1.864,12.886-3.771,19.271-5.862,3.193-1.041,6.369-2.129,9.545-3.193s6.362-2.086,9.564-3.066c.306-.094.614-.184.921-.277v-1.351c-.433.131-.868.259-1.3.391Q1645.861,1835.745,1641.085,1837.354Z" transform="translate(-192.869 -2150.106)"/><path class="d" d="M1641.085,1759.082c-3.182,1.071-6.35,2.162-9.532,3.2-6.361,2.094-12.784,4.007-19.219,5.877q-19.32,5.552-38.927,10.046t-39.43,7.841q-9.912,1.654-19.861,3.162c-6.626,1.01-13.263,1.938-19.918,2.71a419.712,419.712,0,0,1-80.268,1.454q-10.026-.737-20.006-2t-19.872-3.062a361.506,361.506,0,0,1-39.051-9.592,361.767,361.767,0,0,0,38.992,9.9q9.883,1.909,19.87,3.222,9.977,1.341,20.017,2.156a419.585,419.585,0,0,0,80.43-1.1c13.35-1.488,26.607-3.6,39.852-5.756q19.865-3.31,39.507-7.8,19.641-4.446,39.007-10.007c6.448-1.864,12.886-3.771,19.271-5.862,3.193-1.041,6.369-2.129,9.545-3.193s6.362-2.086,9.564-3.066c.306-.094.614-.184.921-.277V1755.6c-.433.131-.868.258-1.3.391Q1645.861,1757.474,1641.085,1759.082Z" transform="translate(-192.869 -2105.659)"/><path class="d" d="M1641.085,1680.812c-3.182,1.071-6.35,2.161-9.532,3.2-6.361,2.094-12.784,4.006-19.219,5.877q-19.32,5.552-38.927,10.047t-39.43,7.841q-9.912,1.655-19.861,3.163c-6.626,1.01-13.263,1.938-19.918,2.71a419.712,419.712,0,0,1-80.268,1.454q-10.026-.738-20.006-2t-19.872-3.062a361.507,361.507,0,0,1-39.051-9.592,361.652,361.652,0,0,0,38.992,9.9q9.883,1.909,19.87,3.221,9.977,1.341,20.017,2.156a419.535,419.535,0,0,0,80.43-1.1c13.35-1.488,26.607-3.6,39.852-5.755q19.865-3.309,39.507-7.8,19.641-4.445,39.007-10.006c6.448-1.864,12.886-3.771,19.271-5.862,3.193-1.041,6.369-2.129,9.545-3.193s6.362-2.086,9.564-3.066c.306-.094.614-.184.921-.277v-1.351c-.433.131-.868.258-1.3.39Q1645.861,1679.2,1641.085,1680.812Z" transform="translate(-192.869 -2061.213)"/><path class="d" d="M1650.676,1514.721q-4.815,1.482-9.591,3.09c-3.182,1.071-6.35,2.162-9.532,3.2-6.361,2.094-12.784,4.006-19.219,5.877q-19.32,5.553-38.927,10.046t-39.43,7.841q-9.912,1.655-19.861,3.163c-6.626,1.01-13.263,1.938-19.918,2.71a419.7,419.7,0,0,1-80.268,1.454q-10.026-.737-20.006-2t-19.872-3.062a361.535,361.535,0,0,1-39.051-9.592,361.767,361.767,0,0,0,38.992,9.9q9.883,1.908,19.87,3.221,9.977,1.341,20.017,2.156a419.555,419.555,0,0,0,80.43-1.1c13.35-1.488,26.607-3.6,39.852-5.755q19.865-3.31,39.507-7.8,19.641-4.445,39.007-10.006c6.448-1.864,12.886-3.771,19.271-5.862,3.193-1.04,6.369-2.129,9.545-3.193s6.362-2.086,9.564-3.066c.306-.094.614-.184.921-.277v-1.351C1651.544,1514.462,1651.109,1514.589,1650.676,1514.721Z" transform="translate(-192.869 -1968.652)"/><path class="d" d="M1650.676,1599.45q-4.815,1.481-9.591,3.09c-3.182,1.072-6.35,2.162-9.532,3.2-6.361,2.094-12.784,4.007-19.219,5.877q-19.32,5.552-38.927,10.046t-39.43,7.842q-9.912,1.654-19.861,3.163c-6.626,1.01-13.263,1.938-19.918,2.709a419.7,419.7,0,0,1-80.268,1.455q-10.026-.738-20.006-2t-19.872-3.062a361.734,361.734,0,0,1-39.051-9.592,361.708,361.708,0,0,0,38.992,9.9q9.883,1.909,19.87,3.222,9.977,1.341,20.017,2.156a419.575,419.575,0,0,0,80.43-1.1c13.35-1.488,26.607-3.6,39.852-5.755q19.865-3.31,39.507-7.8,19.641-4.446,39.007-10.007c6.448-1.864,12.886-3.77,19.271-5.862,3.193-1.041,6.369-2.129,9.545-3.193s6.362-2.086,9.564-3.066c.306-.094.614-.184.921-.277v-1.351C1651.544,1599.191,1651.109,1599.318,1650.676,1599.45Z" transform="translate(-192.869 -2016.766)"/><path class="c" d="M2366.652,1929.843q-9.694,2.658-19.456,5.066c-13.014,3.2-26.1,6.118-39.28,8.547q-19.778,3.593-39.755,5.948c-6.655.783-13.324,1.443-20,2.021s-13.362,1.046-20.054,1.387a540.749,540.749,0,0,1-80.323-2,583.575,583.575,0,0,1-79.284-13.323,583.876,583.876,0,0,0,79.221,13.955,540.285,540.285,0,0,0,80.435,2.364,616.719,616.719,0,0,0,79.972-9.191c13.213-2.417,26.324-5.319,39.364-8.5q9.781-2.389,19.494-5.046c6.04-1.646,12.063-3.35,18.058-5.165v-1.351C2378.944,1926.407,2372.805,1928.157,2366.652,1929.843Z" transform="translate(-295.412 -2369.118)"/><path class="c" d="M2366.652,1851.573q-9.694,2.657-19.456,5.066c-13.014,3.2-26.1,6.118-39.28,8.547q-19.778,3.593-39.755,5.948c-6.655.783-13.324,1.442-20,2.021s-13.362,1.047-20.054,1.387a540.7,540.7,0,0,1-80.323-2,583.48,583.48,0,0,1-79.284-13.323,583.82,583.82,0,0,0,79.221,13.955,540.318,540.318,0,0,0,80.435,2.364,616.74,616.74,0,0,0,79.972-9.191c13.213-2.417,26.324-5.319,39.364-8.5q9.781-2.389,19.494-5.046c6.04-1.646,12.063-3.35,18.058-5.165v-1.351C2378.944,1848.137,2372.805,1849.887,2366.652,1851.573Z" transform="translate(-295.412 -2257.023)"/><path class="c" d="M2366.652,1773.3q-9.694,2.658-19.456,5.067c-13.014,3.2-26.1,6.117-39.28,8.547q-19.778,3.593-39.755,5.948c-6.655.784-13.324,1.443-20,2.022s-13.362,1.047-20.054,1.387a540.832,540.832,0,0,1-80.323-2,583.519,583.519,0,0,1-79.284-13.324,583.82,583.82,0,0,0,79.221,13.955,540.318,540.318,0,0,0,80.435,2.364,616.762,616.762,0,0,0,79.972-9.192c13.213-2.416,26.324-5.319,39.364-8.5q9.781-2.389,19.494-5.046c6.04-1.647,12.063-3.35,18.058-5.165v-1.351C2378.944,1769.865,2372.805,1771.615,2366.652,1773.3Z" transform="translate(-295.412 -2144.927)"/><path class="c" d="M2366.652,1695.03q-9.694,2.658-19.456,5.066c-13.014,3.2-26.1,6.117-39.28,8.547q-19.778,3.593-39.755,5.948c-6.655.783-13.324,1.443-20,2.021s-13.362,1.047-20.054,1.387a540.8,540.8,0,0,1-80.323-2,583.632,583.632,0,0,1-79.284-13.323,583.914,583.914,0,0,0,79.221,13.955,540.3,540.3,0,0,0,80.435,2.364,616.846,616.846,0,0,0,79.972-9.191c13.213-2.417,26.324-5.319,39.364-8.505q9.781-2.389,19.494-5.046c6.04-1.646,12.063-3.35,18.058-5.165v-1.351C2378.944,1691.594,2372.805,1693.344,2366.652,1695.03Z" transform="translate(-295.412 -2032.831)"/><path class="c" d="M2366.652,1616.758q-9.694,2.658-19.456,5.066c-13.014,3.2-26.1,6.118-39.28,8.548q-19.778,3.593-39.755,5.948c-6.655.783-13.324,1.442-20,2.021s-13.362,1.047-20.054,1.387a540.782,540.782,0,0,1-80.323-2,583.5,583.5,0,0,1-79.284-13.323,583.838,583.838,0,0,0,79.221,13.955,540.318,540.318,0,0,0,80.435,2.364,616.719,616.719,0,0,0,79.972-9.191c13.213-2.417,26.324-5.319,39.364-8.5q9.781-2.389,19.494-5.046c6.04-1.646,12.063-3.35,18.058-5.165v-1.351C2378.944,1613.323,2372.805,1615.073,2366.652,1616.758Z" transform="translate(-295.412 -1920.736)"/><path class="c" d="M2347.2,1543.554c-13.014,3.2-26.1,6.118-39.28,8.547q-19.778,3.593-39.755,5.948c-6.655.783-13.324,1.442-20,2.021s-13.362,1.047-20.054,1.387a540.848,540.848,0,0,1-80.323-2,583.6,583.6,0,0,1-79.284-13.324,583.839,583.839,0,0,0,79.221,13.955,540.318,540.318,0,0,0,80.435,2.364,616.719,616.719,0,0,0,79.972-9.191c13.213-2.417,26.324-5.319,39.364-8.5q9.781-2.389,19.494-5.046c6.04-1.646,12.063-3.35,18.058-5.165V1533.2c-6.1,1.856-12.239,3.607-18.392,5.292Q2356.958,1541.146,2347.2,1543.554Z" transform="translate(-295.412 -1808.641)"/><path class="d" d="M1345.892,2026.756c3.182-1.072,6.35-2.162,9.532-3.2,6.361-2.094,12.784-4.007,19.219-5.877q19.321-5.552,38.927-10.047t39.43-7.841q9.912-1.655,19.861-3.163c6.626-1.01,13.263-1.937,19.918-2.71a419.7,419.7,0,0,1,80.268-1.454q10.026.738,20.006,2t19.872,3.063a361.569,361.569,0,0,1,39.051,9.592,361.709,361.709,0,0,0-38.992-9.9q-9.883-1.909-19.87-3.221-9.978-1.341-20.017-2.156a419.515,419.515,0,0,0-80.43,1.1c-13.35,1.488-26.607,3.6-39.852,5.755q-19.865,3.31-39.507,7.8-19.641,4.447-39.007,10.007c-6.449,1.864-12.886,3.771-19.271,5.863-3.193,1.041-6.369,2.129-9.545,3.192s-6.362,2.086-9.564,3.066c-.307.094-.614.184-.921.277v1.351c.433-.131.868-.258,1.3-.391Q1341.116,2028.365,1345.892,2026.756Z" transform="translate(754.2 -2473.453)"/><path class="d" d="M1345.892,1948.485c3.182-1.072,6.35-2.162,9.532-3.2,6.361-2.094,12.784-4.006,19.219-5.877q19.321-5.552,38.927-10.046t39.43-7.841q9.912-1.654,19.861-3.163c6.626-1.01,13.263-1.938,19.918-2.71a419.763,419.763,0,0,1,80.268-1.454q10.026.738,20.006,2t19.872,3.062a361.569,361.569,0,0,1,39.051,9.592,361.823,361.823,0,0,0-38.992-9.9q-9.883-1.908-19.87-3.221-9.978-1.341-20.017-2.156a419.574,419.574,0,0,0-80.43,1.1c-13.35,1.488-26.607,3.6-39.852,5.755q-19.865,3.31-39.507,7.8-19.641,4.446-39.007,10.007c-6.449,1.864-12.886,3.771-19.271,5.862-3.193,1.041-6.369,2.129-9.545,3.193s-6.362,2.086-9.564,3.066c-.307.094-.614.184-.921.277v1.351c.433-.131.868-.258,1.3-.39Q1341.116,1950.094,1345.892,1948.485Z" transform="translate(754.2 -2361.358)"/><path class="d" d="M1345.892,1870.213c3.182-1.071,6.35-2.162,9.532-3.2,6.361-2.094,12.784-4.007,19.219-5.877q19.321-5.552,38.927-10.047t39.43-7.841q9.912-1.654,19.861-3.163c6.626-1.01,13.263-1.938,19.918-2.709a419.713,419.713,0,0,1,80.268-1.455q10.026.738,20.006,2t19.872,3.062a361.685,361.685,0,0,1,39.051,9.592,361.708,361.708,0,0,0-38.992-9.9q-9.883-1.909-19.87-3.222-9.978-1.341-20.017-2.156a419.614,419.614,0,0,0-80.43,1.1c-13.35,1.488-26.607,3.6-39.852,5.755q-19.865,3.31-39.507,7.8-19.641,4.445-39.007,10.007c-6.449,1.864-12.886,3.771-19.271,5.862-3.193,1.041-6.369,2.129-9.545,3.193s-6.362,2.086-9.564,3.066c-.307.094-.614.184-.921.277v1.351c.433-.131.868-.258,1.3-.391Q1341.116,1871.822,1345.892,1870.213Z" transform="translate(754.2 -2249.261)"/><path class="d" d="M1345.892,1791.942c3.182-1.071,6.35-2.162,9.532-3.2,6.361-2.094,12.784-4.007,19.219-5.877q19.321-5.552,38.927-10.046t39.43-7.841q9.912-1.654,19.861-3.162c6.626-1.01,13.263-1.938,19.918-2.71a419.743,419.743,0,0,1,80.268-1.454q10.026.738,20.006,2t19.872,3.063a361.569,361.569,0,0,1,39.051,9.592,361.765,361.765,0,0,0-38.992-9.9q-9.883-1.909-19.87-3.222-9.978-1.341-20.017-2.156a419.594,419.594,0,0,0-80.43,1.1c-13.35,1.488-26.607,3.6-39.852,5.756q-19.865,3.31-39.507,7.8-19.641,4.446-39.007,10.007c-6.449,1.865-12.886,3.771-19.271,5.862-3.193,1.041-6.369,2.129-9.545,3.193s-6.362,2.086-9.564,3.066c-.307.094-.614.183-.921.277v1.351c.433-.132.868-.258,1.3-.391Q1341.116,1793.551,1345.892,1791.942Z" transform="translate(754.2 -2137.166)"/><path class="d" d="M1345.892,1713.671c3.182-1.071,6.35-2.161,9.532-3.2,6.361-2.094,12.784-4.006,19.219-5.876q19.321-5.553,38.927-10.047T1453,1686.7q9.912-1.655,19.861-3.163c6.626-1.01,13.263-1.938,19.918-2.71a419.743,419.743,0,0,1,80.268-1.454q10.026.738,20.006,2t19.872,3.062a361.51,361.51,0,0,1,39.051,9.592,361.736,361.736,0,0,0-38.992-9.9q-9.883-1.909-19.87-3.221-9.978-1.341-20.017-2.156a419.555,419.555,0,0,0-80.43,1.1c-13.35,1.488-26.607,3.6-39.852,5.755q-19.865,3.31-39.507,7.8-19.641,4.446-39.007,10.006c-6.449,1.864-12.886,3.771-19.271,5.863-3.193,1.041-6.369,2.129-9.545,3.193s-6.362,2.086-9.564,3.066c-.307.094-.614.184-.921.277v1.351c.433-.131.868-.258,1.3-.39Q1341.116,1715.28,1345.892,1713.671Z" transform="translate(754.2 -2025.071)"/><path class="d" d="M1336.3,1553.761q4.815-1.482,9.591-3.09c3.182-1.071,6.35-2.162,9.532-3.2,6.361-2.094,12.784-4.006,19.219-5.877q19.321-5.553,38.927-10.047T1453,1523.7q9.912-1.655,19.861-3.163c6.626-1.01,13.263-1.938,19.918-2.71a419.7,419.7,0,0,1,80.268-1.454q10.026.737,20.006,2t19.872,3.062a361.482,361.482,0,0,1,39.051,9.592,361.823,361.823,0,0,0-38.992-9.9q-9.883-1.908-19.87-3.221-9.978-1.341-20.017-2.156a419.555,419.555,0,0,0-80.43,1.1c-13.35,1.488-26.607,3.6-39.852,5.755q-19.865,3.31-39.507,7.8-19.641,4.446-39.007,10.006c-6.449,1.864-12.886,3.771-19.271,5.863-3.193,1.04-6.369,2.129-9.545,3.193s-6.362,2.086-9.564,3.066c-.307.094-.614.184-.921.277v1.351C1335.434,1554.021,1335.868,1553.894,1336.3,1553.761Z" transform="translate(754.2 -1791.631)"/><path class="d" d="M1336.3,1638.49q4.815-1.481,9.591-3.09c3.182-1.072,6.35-2.162,9.532-3.2,6.361-2.094,12.784-4.006,19.219-5.877q19.321-5.552,38.927-10.046t39.43-7.842q9.912-1.654,19.861-3.163c6.626-1.01,13.263-1.938,19.918-2.709a419.7,419.7,0,0,1,80.268-1.455q10.026.738,20.006,2t19.872,3.062a361.684,361.684,0,0,1,39.051,9.592,361.648,361.648,0,0,0-38.992-9.9q-9.883-1.909-19.87-3.222-9.978-1.341-20.017-2.156a419.574,419.574,0,0,0-80.43,1.1c-13.35,1.489-26.607,3.6-39.852,5.755q-19.865,3.309-39.507,7.8-19.641,4.446-39.007,10.007c-6.449,1.864-12.886,3.77-19.271,5.862-3.193,1.041-6.369,2.129-9.545,3.193s-6.362,2.086-9.564,3.066c-.307.094-.614.184-.921.277v1.351C1335.434,1638.75,1335.868,1638.623,1336.3,1638.49Z" transform="translate(754.2 -1912.975)"/></g></g></svg>