<svg xmlns="http://www.w3.org/2000/svg" xmlns:xlink="http://www.w3.org/1999/xlink" width="1379" height="385.25" viewBox="0 0 1379 385.25"><defs><style>.a{fill:none;}.b{clip-path:url(#a);}.c{fill:#003057;}.d{fill:#0a4a83;}</style><clipPath id="a"><rect class="a" width="1379" height="385.25" transform="translate(-3471.873 -141.405)"/></clipPath></defs><g transform="translate(3471.873 141.405)"><g class="b"><rect class="c" width="1379" height="385.25" transform="translate(-3471.873 -141.405)"/><g transform="translate(-49 -19)"><path class="d" d="M-2954.63-103.605A91.675,91.675,0,0,0-3046.2-12.033a91.675,91.675,0,0,0,91.571,91.571,91.676,91.676,0,0,0,91.572-91.571A91.676,91.676,0,0,0-2954.63-103.605Zm0,180.765a89.294,89.294,0,0,1-89.193-89.193,89.294,89.294,0,0,1,89.193-89.193,89.293,89.293,0,0,1,89.193,89.193A89.294,89.294,0,0,1-2954.63,77.16Z"/><path class="d" d="M-2954.63-77.441a65.483,65.483,0,0,0-65.408,65.408,65.483,65.483,0,0,0,65.408,65.408,65.483,65.483,0,0,0,65.408-65.408A65.483,65.483,0,0,0-2954.63-77.441Zm0,128.437a63.1,63.1,0,0,1-63.03-63.029,63.1,63.1,0,0,1,63.03-63.03,63.1,63.1,0,0,1,63.03,63.03A63.1,63.1,0,0,1-2954.63,51Z"/><circle class="d" cx="34.488" cy="34.488" r="34.488" transform="translate(-2989.118 -46.521)"/><path class="d" d="M-2954.63-132.146A120.249,120.249,0,0,0-3074.743-12.033,120.25,120.25,0,0,0-2954.63,108.08,120.249,120.249,0,0,0-2834.517-12.033,120.248,120.248,0,0,0-2954.63-132.146Zm0,237.847A117.868,117.868,0,0,1-3072.365-12.033,117.869,117.869,0,0,1-2954.63-129.768,117.869,117.869,0,0,1-2836.9-12.033,117.868,117.868,0,0,1-2954.63,105.7Z"/><path class="d" d="M-2949.873-155.931c-80.657,0-146.276,65.619-146.276,146.276s65.619,146.277,146.276,146.277S-2803.6,71-2803.6-9.655-2869.216-155.931-2949.873-155.931Zm0,290.174c-79.346,0-143.9-64.553-143.9-143.9s64.552-143.9,143.9-143.9,143.9,64.554,143.9,143.9S-2870.527,134.243-2949.873,134.243Z"/><path class="d" d="M-2949.873-184.473c-96.394,0-174.818,78.422-174.818,174.818s78.424,174.818,174.818,174.818,174.818-78.422,174.818-174.818S-2853.478-184.473-2949.873-184.473Zm0,347.258c-95.083,0-172.44-77.356-172.44-172.44s77.357-172.439,172.44-172.439,172.44,77.356,172.44,172.439S-2854.79,162.785-2949.873,162.785Z"/><path class="d" d="M-2949.873-210.636c-110.821,0-200.981,90.159-200.981,200.981s90.16,200.982,200.981,200.982,200.981-90.16,200.981-200.982S-2839.052-210.636-2949.873-210.636Zm0,399.584c-109.51,0-198.6-89.093-198.6-198.6s89.093-198.6,198.6-198.6,198.6,89.093,198.6,198.6S-2840.363,188.948-2949.873,188.948Z"/><path class="d" d="M-2949.873-236.8c-125.247,0-227.145,101.9-227.145,227.144s101.9,227.145,227.145,227.145,227.145-101.9,227.145-227.145S-2824.625-236.8-2949.873-236.8Zm0,451.91c-123.936,0-224.766-100.829-224.766-224.766s100.83-224.766,224.766-224.766,224.766,100.83,224.766,224.766S-2825.937,215.111-2949.873,215.111Z"/><path class="d" d="M-2949.873-265.341c-140.986,0-255.686,114.7-255.686,255.686s114.7,255.687,255.686,255.687,255.686-114.7,255.686-255.687S-2808.887-265.341-2949.873-265.341Zm0,508.994c-139.674,0-253.308-113.633-253.308-253.308s113.634-253.308,253.308-253.308S-2696.565-149.33-2696.565-9.655-2810.2,243.653-2949.873,243.653Z"/><path class="d" d="M-2949.873-292.155c-155.772,0-282.5,126.728-282.5,282.5s126.729,282.5,282.5,282.5,282.5-126.728,282.5-282.5S-2794.1-292.155-2949.873-292.155Zm0,562.622C-3104.333,270.467-3230,144.8-3230-9.655s125.663-280.121,280.123-280.121S-2669.75-164.114-2669.75-9.655-2795.412,270.467-2949.873,270.467Z"/></g></g></g></svg>